<svg width="595" height="842" viewBox="0 0 595 842" fill="none" xmlns="http://www.w3.org/2000/svg" xmlns:xlink="http://www.w3.org/1999/xlink">
<g clip-path="url(#clip0_1157_5003)">
<text fill="#8D8D8D" xml:space="preserve" style="white-space: pre" font-family="Noto Sans" font-size="6" font-weight="bold" letter-spacing="0px"><tspan x="61.9999" y="780.593">CAUTION : THERE ARE OFFENCES RELATING TO FALSIFYING OR ALTERING A CERTIFICATE AND USING OR POSSESSING A FALSE CERTIFICATE </tspan><tspan x="61.9999" y="790.593">IS NOT PROOF OF IDENTITY / ATTENTION : IL EXISTE DES INFRACTIONS RELATIVES A LA FALSIFIATION OU &#xc0; LA MODIFICATION D&#39;UN </tspan><tspan x="61.9999" y="800.593">CERTIFICAT ET A L&#39;UTILISATION OU LA POSSESSION D&#39;UN FAUX CERTIFICAT. UN CERTIFICAT N&#39;EST PAS UNE PREUVE D&#39;IDENTITE</tspan></text>
<rect x="499.47" y="771.29" width="33.95" height="33.95" fill="url(#pattern0)"/>
</g>
    <g transform="matrix(1.00489,0,0,0.99954,1,0.387395)">
        <rect x="0" y="-0.2" width="591.3" height="841.9" style="fill:rgb(250,250,250);stroke:rgb(205,204,204);stroke-width:1px;"/>
    </g>
    <g id="signature" transform="matrix(0.097687,0,0,0.097687,235.426,631.555)">
        <use xlink:href="#_Image1" x="0" y="0" width="590px" height="590px"/>
    </g>
    <g id="qrCode" transform="matrix(0.265435,0,0,0.265435,265.798,757.178)">
        <use xlink:href="#_Image2" x="0" y="0" width="240px" height="240px"/>
    </g>
    <g transform="matrix(1.00334,0,0,0.968155,66.1098,-127.348)">
        <g transform="matrix(30.9868,0,0,30.9868,260.577,298.006)">
        </g>
        <g transform="matrix(30.9868,0,0,30.9868,272.081,298.006)">
        </g>
        <g transform="matrix(30.9868,0,0,30.9868,476.338,298.006)">
        </g>
        <text x="183.823px" y="298.006px" style="font-family:'Montserrat-SemiBold', 'Montserrat';font-weight:600;font-size:30.987px;fill:rgb(64,122,175);">
            Certificate of birth
        </text>
    </g>
    <g>
        <clipPath id="_clip1">
            <rect x="0" y="-0.2" width="591.3" height="841.9"/>
        </clipPath>
        <g clip-path="url(#_clip1)">
            <g>
                <path d="M108.3,175.8C107.6,176 107,176.3 106.5,176.6L139.8,176.6C133.1,175.2 126.2,174.1 119.9,174.1C115.4,174.1 111.5,174.7 108.3,175.8ZM73.8,161.1C70.2,147.1 38.7,142.9 5.3,138.6C3.5,138.4 1.7,138.1 -0.1,137.9L-0.1,150.3C2.3,150.2 4.8,150.2 7.1,150.2C17.5,150.2 29.3,150.8 37.6,155.3C44.5,159.1 47.6,162.1 47.5,164.7C47.3,168 42.3,170 36.5,172.2C33.1,173.5 29.7,174.9 27.1,176.6L69.1,176.6C73.4,170.5 74.9,165.4 73.8,161.1ZM71.9,131.7C71.1,129.1 71.1,126.4 72,123.8L0,123.8L0,136.6C1.9,136.8 3.8,137.1 5.6,137.3C40.9,141.9 71.4,145.9 75.2,160.8C76.3,165.3 75,170.5 70.9,176.6L103.8,176.6C105,175.8 106.3,175.1 107.8,174.5C111.1,173.3 115.2,172.7 119.9,172.7C128.1,172.7 137.3,174.5 145.9,176.6L173.7,176.6C158.7,174.6 139.2,169.4 123.9,164.3C102.5,157.1 76.1,145.6 71.9,131.7ZM46.5,164.6C46.6,162.4 43.5,159.5 37.1,156.1C29,151.7 17.4,151.1 7.1,151.1C4.7,151.1 2.3,151.1 -0.1,151.2L-0.1,176.6L25.4,176.6C25.6,176.4 25.8,176.3 26,176.1C28.7,174.2 32.4,172.7 36.1,171.3C41.4,169.3 46.4,167.3 46.5,164.6ZM227,141.9C225.2,143.3 223.7,144.8 222.5,146.6C219.6,151 219.2,156.5 221.3,162.8L238.2,150.2L227,141.9ZM125.3,149.6C126.4,150 127.4,150.3 128.5,150.6C132.1,151.8 135.7,153.4 139.2,154.9C145.2,157.5 151.4,160.2 157.8,161.2C166.6,162.6 172.2,162.2 174.2,160C174.9,159.2 175.2,158.3 175.2,157.1C174.9,151.6 167,142.6 159.4,133.9C156.2,130.3 153.2,126.8 150.8,123.7L139,123.7C140.7,128.2 141.8,133.4 140,136.3C139,137.8 137.4,138.6 135.1,138.6C133,138.6 130.4,138 127.3,136.7C125.9,136.1 124.5,135.6 123.1,135.1C116.6,132.8 110.4,130.6 110.5,123.6L92.5,123.6C92,125.5 92,127.4 92.4,129.1C94.7,139.5 112.4,145.3 125.3,149.6ZM123.2,134.3C124.6,134.8 126.1,135.3 127.5,135.9C133.6,138.3 137.5,138.4 139.1,135.9C140.5,133.7 140,129.4 137.9,123.8L111.2,123.8C111.2,130 116.9,132 123.2,134.3ZM221.3,145.8C222.5,144 224,142.5 225.8,141.1L206.7,126.9C201.9,128.5 197.6,129.6 193.6,129.6C188.4,129.6 184.1,127.7 180.8,123.7L166.2,123.7C171.6,131.5 178.8,138.4 185.5,144.7C194.5,153.3 202.3,160.7 201.6,167.3C201.2,170.4 199,173.2 194.9,175.7C194.3,176 193.6,176.3 192.8,176.6L202.9,176.6L220.4,163.6C217.7,156.6 218.1,150.6 221.3,145.8ZM200.4,167.3C201.1,161.2 193.5,153.9 184.6,145.5C177.8,139 170.3,131.9 164.8,123.8L151.3,123.8C153.6,126.8 156.6,130.2 159.6,133.6C167.3,142.4 175.3,151.5 175.6,157.1C175.7,158.5 175.3,159.6 174.5,160.5C173.1,162 170.5,162.7 166.5,162.7C164.1,162.7 161,162.4 157.6,161.9C151.1,160.9 144.9,158.2 138.9,155.6C135.4,154.1 131.8,152.5 128.2,151.3C127.2,151 126.1,150.6 125,150.3C111.9,146 94,140.1 91.4,129.5C91,127.7 91,125.8 91.5,123.8L73,123.8C72.1,126.4 72.1,128.9 72.8,131.5C76.9,145.1 103,156.4 124.2,163.5C143.7,170 170,176.6 185,176.6C189.3,176.6 192.4,176.1 194.2,175C198.1,172.6 200.1,170.1 200.4,167.3ZM205.3,125.9L202.4,123.7L182.6,123.7C185.6,126.7 189.2,128.2 193.5,128.2C197.1,128.2 201.1,127.3 205.3,125.9Z" style="fill:rgb(64,122,175);fill-rule:nonzero;"/>
            </g>
        </g>
    </g>
    <g transform="matrix(1,0,0,1,-0.668242,-160.05)">
        <g transform="matrix(24,0,0,24,502.525,245.404)">
        </g>
        <text x="164.317px" y="245.404px" style="font-family:'Montserrat-SemiBold', 'Montserrat';font-weight:600;font-size:20px;fill:rgb(63,63,63);">
            District of {{location registrar.districtId 'name'}}
        </text>
    </g>
    <g>
        <g>
            <g>
                <path d="M73.3,47L72.8,46.8C72.9,46.9 72.9,47 73,47.1L73.3,47Z" style="fill:rgb(63,63,63);fill-rule:nonzero;"/>
                <path d="M74.2,71.3C74,71.2 73.8,71.1 73.8,71.1C73.8,71.1 73.9,71.2 74.2,71.3C74.4,71.3 74.6,71.4 74.9,71.5C74.8,71.1 74.7,70.8 74.7,70.4C74.4,70.3 74.1,70.1 73.8,70C72.9,69.5 72,69.1 71.3,68.6C70.6,68.2 70,67.8 69.6,67.5C69.2,67.2 69,67.1 69,67.1C69,67.1 69.2,67.2 69.7,67.5C70.1,67.7 70.7,68.1 71.5,68.4C72.2,68.8 73.1,69.2 74.1,69.6C74.3,69.7 74.5,69.8 74.7,69.9C74.6,69.5 74.5,69.1 74.5,68.7C73.5,68.3 72.6,67.8 71.7,67.3C70.8,66.8 70,66.3 69.2,65.8C68.5,65.4 67.9,64.9 67.5,64.7C67.1,64.4 66.9,64.2 66.9,64.2C66.9,64.2 67.1,64.3 67.6,64.6C68,64.8 68.6,65.2 69.4,65.6C70.1,66 71,66.4 71.9,66.9C72.7,67.3 73.5,67.7 74.4,68.1C74.3,67.7 74.3,67.3 74.2,67C71.3,65.6 68.3,64 65.7,62.1C65.7,62.1 64.9,67.1 70.3,70.6C71.9,71.6 73.7,72.5 75.4,73.2C75.3,72.7 75.2,72.3 75.1,71.8C74.6,71.6 74.4,71.5 74.2,71.3Z" style="fill:rgb(63,63,63);fill-rule:nonzero;"/>
                <path d="M72.4,55C72.5,55.2 72.7,55.3 72.8,55.5L74.2,55.3L72.4,55Z" style="fill:rgb(63,63,63);fill-rule:nonzero;"/>
                <path d="M71.4,50.8C71,50.2 70.8,49.7 70.6,49.3C70.4,48.9 70.3,48.7 70.3,48.7C70.3,48.7 70.4,48.9 70.6,49.2C70.8,49.5 71.1,50 71.5,50.6C71.6,50.8 71.8,51.1 72,51.3C72,50.5 71.9,49.8 71.9,49C71.9,48.9 71.8,48.9 71.8,48.8C71.4,48.2 71.1,47.7 70.9,47.2C70.6,46.7 70.4,46.3 70.2,45.9C69.8,45.2 69.6,44.8 69.6,44.8C69.6,44.8 69.8,45.2 70.2,45.9C70.4,46.2 70.7,46.7 71,47.1C71.3,47.5 71.6,48 71.9,48.5C71.9,48.1 71.9,47.7 71.8,47.3L72.5,47.1C72.4,46.9 72.3,46.8 72.2,46.6L71.8,46.5L71.8,45.8C71.3,44.8 70.9,43.9 70.6,43.3C70.3,42.7 70.2,42.3 70.2,42.3C70.2,42.3 70.4,42.7 70.7,43.3C71,43.8 71.3,44.5 71.8,45.2L71.8,43.2C71.1,42.1 70.5,41 69.9,39.9C69.9,39.9 66.2,45.5 69.9,51.6C70.6,52.7 71.4,53.8 72.4,55C72.3,54 72.2,53.1 72.2,52.1C71.9,51.6 71.6,51.2 71.4,50.8Z" style="fill:rgb(63,63,63);fill-rule:nonzero;"/>
                <path d="M76.9,82.5L77.1,83.4L77.7,82.7C77.9,82.8 78.1,82.8 78.3,82.9C78.2,82.7 78.2,82.6 78.1,82.4L78.3,82.3L78.2,82.3L78.3,82.3L79,81.8L78,81.8C77.9,81.6 77.9,81.4 77.8,81.2L77,81.2C76.3,81.2 75.7,81.1 75.2,81.1C74.7,81 74.2,81 73.9,80.9C73.6,80.8 73.4,80.8 73.4,80.8L77.6,80.8C77.5,80.6 77.4,80.3 77.3,80.1C75.1,80.1 72.8,80 71,79.7C71,79.7 71.9,81.4 74.1,82.7C74.6,82.6 75.1,82.5 75.7,82.5C76.1,82.3 76.5,82.4 76.9,82.5Z" style="fill:rgb(63,63,63);fill-rule:nonzero;"/>
                <path d="M73.1,63.8C72.4,63.3 71.9,62.8 71.4,62.3C70.9,61.9 70.5,61.5 70.2,61.2C69.9,60.9 69.8,60.8 69.8,60.8C69.8,60.8 70,60.9 70.3,61.2C70.6,61.5 71,61.8 71.6,62.2C72.1,62.6 72.7,63.1 73.4,63.6C73.3,63.1 73.2,62.6 73.2,62.1C72.2,61.3 71.3,60.5 70.5,59.7C70.1,59.3 68.9,58.1 68.7,57.9C68.3,57.4 68.1,57.2 68.1,57.2C68.1,57.2 68.4,57.4 68.8,57.9C69,58.1 69.3,58.4 69.6,58.7C69.9,59 70.3,59.3 70.7,59.7C71.4,60.3 72.3,61 73.2,61.7C73.1,61.3 73.1,60.9 73,60.4C72.8,60.2 72.6,60.1 72.4,59.9C71.9,59.5 71.5,59.1 71.1,58.7C70.7,58.3 70.3,57.9 69.9,57.5C69.5,57.1 69.2,56.7 68.9,56.4C68.6,56 68.3,55.7 68.1,55.4C67.9,55.1 67.7,54.8 67.5,54.6C67.2,54.1 67.1,53.9 67.1,53.9C67.1,53.9 67.3,54.2 67.6,54.6C67.8,54.8 68,55.1 68.2,55.3C68.5,55.6 68.7,55.9 69.1,56.2C69.4,56.5 69.8,56.9 70.2,57.3C70.6,57.7 71,58 71.4,58.4C71.8,58.8 72.3,59.2 72.8,59.5C72.9,59.6 72.9,59.6 73,59.7C72.9,59.2 72.9,58.7 72.8,58.2C70.7,56.4 68.6,54.3 66.5,51.8C66.5,51.8 64.3,56.4 68.7,61.5C70,63 71.8,64.5 73.8,65.8C73.7,65.3 73.6,64.8 73.5,64.3C73.3,64 73.2,63.9 73.1,63.8Z" style="fill:rgb(63,63,63);fill-rule:nonzero;"/>
                <path d="M76.6,78.3C76.1,78.2 75.6,78 75.1,77.9C74.6,77.7 74.2,77.6 73.8,77.4C73.4,77.2 73.1,77.1 72.9,77C72.7,76.9 72.6,76.8 72.6,76.8C72.6,76.8 72.7,76.8 73,76.9C73.2,77 73.5,77.1 73.9,77.2C74.3,77.3 74.7,77.4 75.2,77.6C75.6,77.7 76.1,77.8 76.6,77.9C76.5,77.6 76.4,77.3 76.3,77.1C76.1,77 75.8,77 75.6,76.9C75.1,76.8 74.7,76.6 74.4,76.5C74.1,76.4 73.9,76.3 73.9,76.3C73.9,76.3 74.1,76.3 74.4,76.4C74.7,76.5 75.1,76.5 75.6,76.6C75.8,76.6 75.9,76.7 76.1,76.7C76,76.4 75.9,76.1 75.8,75.8C74.9,75.6 74,75.4 73.2,75.2C72.4,75 71.6,74.7 71,74.5C70.4,74.3 69.8,74 69.5,73.9C69.1,73.7 68.9,73.6 68.9,73.6C68.9,73.6 69.1,73.7 69.5,73.8C69.9,73.9 70.4,74.1 71.1,74.2C71.8,74.4 72.5,74.6 73.4,74.7C74.2,74.9 75,75.1 75.8,75.2C75.7,74.9 75.6,74.6 75.5,74.3C72.6,73.6 69.5,72.8 67,71.6C67,71.6 67.8,76.2 72.9,78C74.2,78.5 75.6,78.8 76.9,79.1C76.9,78.8 76.8,78.5 76.6,78.3C76.7,78.3 76.7,78.3 76.6,78.3Z" style="fill:rgb(63,63,63);fill-rule:nonzero;"/>
                <path d="M134.4,67C135.3,66.5 136.2,66.1 136.9,65.7C137.6,65.3 138.2,65 138.7,64.7C139.1,64.5 139.4,64.3 139.4,64.3C139.4,64.3 139.2,64.5 138.8,64.8C138.4,65.1 137.8,65.5 137.1,65.9C136.4,66.3 135.6,66.9 134.6,67.4C133.7,67.9 132.7,68.4 131.8,68.8C131.7,69.2 131.6,69.6 131.6,70C131.8,69.9 132.1,69.8 132.3,69.7C133.2,69.3 134.1,68.9 134.9,68.5C135.6,68.1 136.3,67.8 136.7,67.6C137.1,67.4 137.4,67.2 137.4,67.2C137.4,67.2 137.2,67.4 136.8,67.6C136.4,67.9 135.8,68.3 135.1,68.7C134.4,69.1 133.5,69.6 132.6,70.1C132.3,70.2 132,70.4 131.7,70.5C131.6,70.9 131.5,71.2 131.4,71.6C131.7,71.5 131.9,71.4 132.1,71.3C132.4,71.2 132.5,71.1 132.5,71.1C132.5,71.1 132.4,71.2 132.1,71.3C131.9,71.4 131.6,71.6 131.3,71.7C131.2,72.2 131.1,72.6 131,73.1C132.8,72.4 134.6,71.5 136.2,70.5C141.6,67 140.8,62 140.8,62C138.2,63.9 135.2,65.6 132.3,66.9C132.2,67.3 132.2,67.7 132.1,68C132.8,67.8 133.6,67.4 134.4,67Z" style="fill:rgb(63,63,63);fill-rule:nonzero;"/>
                <path d="M135.4,43.3C135.7,42.7 135.9,42.3 135.9,42.3C135.9,42.3 135.7,42.7 135.4,43.3C135.2,44 134.8,44.8 134.3,45.8C134.3,46.8 134.2,47.7 134.2,48.6C134.6,48.1 134.9,47.6 135.1,47.1C135.4,46.6 135.7,46.2 135.9,45.9C136.3,45.2 136.5,44.8 136.5,44.8C136.5,44.8 136.3,45.2 135.9,45.9C135.7,46.3 135.5,46.7 135.2,47.2C134.9,47.7 134.6,48.2 134.3,48.8C134.2,48.9 134.2,49 134.1,49.1C134.1,49.9 134,50.7 134,51.4C134.2,51.1 134.4,50.9 134.5,50.6C134.9,50 135.2,49.5 135.4,49.2C135.6,48.9 135.7,48.7 135.7,48.7C135.7,48.7 135.6,48.9 135.4,49.3C135.2,49.7 135,50.2 134.6,50.8C134.4,51.2 134.1,51.6 133.9,52C133.8,53 133.8,53.9 133.7,54.9C134.7,53.8 135.5,52.6 136.2,51.5C139.9,45.4 136.2,39.8 136.2,39.8C135.6,40.9 134.9,42.1 134.3,43.1L134.3,45.1C134.7,44.5 135.1,43.8 135.4,43.3Z" style="fill:rgb(63,63,63);fill-rule:nonzero;"/>
                <path d="M131.3,75C131.8,74.9 132.2,74.8 132.6,74.7C133.4,74.5 134.2,74.3 134.9,74.2C135.6,74 136.1,73.9 136.5,73.8C136.9,73.7 137.1,73.6 137.1,73.6C137.1,73.6 136.9,73.7 136.5,73.9C136.1,74.1 135.6,74.3 135,74.5C134.4,74.7 133.6,75 132.8,75.2C132.5,75.3 132.1,75.4 131.8,75.5C132.3,76 132.7,76.6 133,77L133.2,77C133.4,76.9 133.6,76.9 133.6,76.9C133.6,76.9 133.5,77 133.3,77.1C133.3,77.1 133.2,77.1 133.2,77.2C133.4,77.6 133.6,77.9 133.6,77.9L133.7,78C138.5,76.1 139.3,71.7 139.3,71.7C136.8,72.9 133.7,73.8 130.8,74.4L130.8,74.5C130.8,74.6 131,74.8 131.3,75Z" style="fill:rgb(63,63,63);fill-rule:nonzero;"/>
                <path d="M133.3,59.5C133.4,59.4 133.4,59.4 133.5,59.3C134,58.9 134.4,58.5 134.9,58.2C135.3,57.8 135.7,57.4 136.1,57.1C136.5,56.7 136.8,56.4 137.2,56C137.5,55.7 137.8,55.3 138.1,55.1C138.3,54.8 138.6,54.6 138.7,54.4C139,54 139.2,53.7 139.2,53.7C139.2,53.7 139.1,54 138.8,54.4C138.7,54.6 138.5,54.9 138.2,55.2C138,55.5 137.7,55.9 137.4,56.2C137.1,56.6 136.8,56.9 136.4,57.3C136,57.7 135.6,58.1 135.2,58.5C134.8,58.9 134.3,59.3 133.9,59.7C133.7,59.9 133.5,60 133.3,60.2C133.2,60.6 133.2,61.1 133.1,61.5C134,60.8 134.9,60.1 135.6,59.4C136,59.1 136.4,58.7 136.7,58.4C137,58.1 137.3,57.9 137.5,57.6C137.9,57.2 138.2,56.9 138.2,56.9C138.2,56.9 138,57.2 137.6,57.6C137.4,57.8 137.1,58.1 136.8,58.4C136.5,58.7 136.2,59.1 135.8,59.4C135,60.1 134.1,60.9 133.1,61.8L133,61.8C132.9,62.3 132.9,62.8 132.8,63.3C133.5,62.8 134.1,62.4 134.6,61.9C135.1,61.5 135.6,61.1 135.9,60.9C136.2,60.7 136.4,60.5 136.4,60.5C136.4,60.5 136.2,60.7 136,60.9C135.7,61.2 135.3,61.6 134.8,62C134.3,62.4 133.7,63 133.1,63.5C133,63.6 132.9,63.7 132.8,63.8C132.7,64.3 132.6,64.8 132.6,65.3C134.6,64 136.4,62.5 137.7,61C142.1,55.9 139.9,51.3 139.9,51.3C137.6,54.1 135.2,56.4 133,58.3L133.6,58.4C133.3,59 133.3,59.2 133.3,59.5Z" style="fill:rgb(63,63,63);fill-rule:nonzero;"/>
                <path d="M134.4,80.4C134.8,79.9 135,79.5 135,79.5C134.7,79.5 134.4,79.6 134.1,79.6C134.2,79.9 134.3,80.2 134.4,80.4Z" style="fill:rgb(63,63,63);fill-rule:nonzero;"/>
            </g>
            <g>
                <path d="M130,41L103,35.1L76.1,41C76.2,66.2 81.1,80.6 86.3,88.7C86.8,88.8 87.3,88.8 87.9,88.9C87.3,88 86.8,87.1 86.2,86.1L85.9,81.8L85.7,85.2C81.4,77 77.6,63.6 77.3,42L78.3,41.8L78.6,46.6L78.9,41.7L85.3,40.3L85.6,53.7L85.9,40.2L90.5,39.2L91.3,44.4L92.2,38.8L94.7,38.3L95,50.3L95.3,38.2L103.1,36.5L110.3,38.1L110.6,42.8L110.9,38.2L115.2,39.1L116.1,48.2L117,39.5L123,40.8L123.3,55.5L123.6,40.9L128.9,42.1C128.8,55.5 127.3,65.7 125.1,73.5C125.6,73.4 126,73.3 126.4,73.3C128.4,65.2 129.9,54.7 130,41Z" style="fill:rgb(63,63,63);fill-rule:nonzero;"/>
                <path d="M90.7,89L91,89L90.9,85.1L90.7,89Z" style="fill:rgb(63,63,63);fill-rule:nonzero;"/>
                <path d="M115.2,96.4C114.8,96.8 114.3,97.2 113.9,97.5C113,98.2 112.2,98.8 111.4,99.3C111,99.6 110.6,99.8 110.2,100C109.8,100.2 109.4,100.4 109.1,100.6C108.9,100.7 108.7,100.8 108.6,100.8C108.2,101 107.9,101.1 107.6,101.2C107,101.4 106.4,101.6 105.9,101.7C105.3,102 104.7,102.2 104.1,102.5L103.5,102.1L103.4,102.1L103.1,102.9C101.6,103.5 100.2,104 98.6,104.4C101.2,105.2 102.9,105.2 103,105.2C103.4,105.2 106.9,105.1 111.4,102.8L110.7,100.8L112,102.5C115.3,100.7 119,97.7 122.4,92.7C122.2,92.4 122,92.2 121.9,92C120,93.1 117.8,94.5 115.6,96C115.5,96.1 115.3,96.2 115.2,96.4Z" style="fill:rgb(63,63,63);fill-rule:nonzero;"/>
                <path d="M122.8,92.2C123,91.8 123.3,91.5 123.5,91.1C123.1,91.3 122.6,91.6 122.2,91.8C122.3,91.9 122.6,92.1 122.8,92.2Z" style="fill:rgb(63,63,63);fill-rule:nonzero;"/>
                <path d="M77.7,81.2C77.8,81.4 77.8,81.6 77.9,81.8L79,81.7L78.3,82.2L78.1,82.3C78.2,82.5 78.2,82.6 78.3,82.8C78.7,82.9 79.2,83.1 79.7,83.4C82.2,84.6 83.5,86.5 84.1,88.4C84.3,88.4 84.4,88.5 84.6,88.5C79.2,79.5 74.8,64.7 74.8,40L103,33.8L131.2,40C131.2,43.9 131.1,47.5 130.9,50.9C130.7,54.3 130.4,57.5 130,60.5C129.8,62 129.6,63.4 129.4,64.8C129.1,66.9 128.7,68.8 128.2,70.7C128,71.6 127.8,72.4 127.6,73.3C128.8,73.4 129.7,73.9 130.5,74.4L130.5,74.3C130.6,73.9 130.7,73.6 130.8,73.2C130.9,72.7 131,72.3 131.1,71.8C131.1,71.7 131.1,71.6 131.2,71.6C131.3,71.2 131.4,70.9 131.5,70.5C131.5,70.4 131.6,70.2 131.6,70.1C131.7,69.7 131.8,69.3 131.8,68.9C131.8,68.7 131.9,68.5 131.9,68.3C132,67.9 132,67.5 132.1,67.2C132.2,66.7 132.3,66.2 132.4,65.7C132.5,65.2 132.6,64.7 132.6,64.2C132.6,64 132.7,63.9 132.7,63.7C132.8,63.2 132.9,62.7 132.9,62.2C132.9,62 132.9,61.9 133,61.7C133.1,61.3 133.1,60.8 133.2,60.4C133.2,60.2 133.3,59.9 133.3,59.7C133.3,59.4 133.4,59.2 133.4,58.9L132.8,58.8L131.8,58.6L133.4,58.2C133.5,57.2 133.6,56.2 133.7,55.2C133.8,54.3 133.9,53.3 133.9,52.3L133.9,51.7C133.9,50.9 134,50.2 134,49.4L134,48.9C134,48 134.1,47 134.1,46.1L134.1,41.1L133.2,40.8L134.1,40.5L134.1,37.8L131.7,37.3L119.6,34.6L119.2,36.9L118.7,34.4L103.5,31L102.8,30.9L102.1,31L99.8,31.5L99.4,33.5L99,31.7L85.4,34.7L85.3,36L85,34.6L78.6,36L78.1,37.8L77.7,36.2L74.2,37L71.8,37.5L71.8,46.5L72.2,46.6L72.7,46.7L73.2,46.9L72.4,47.1L71.7,47.3C71.7,47.7 71.7,48.1 71.8,48.5L71.8,49C71.8,49.8 71.9,50.6 71.9,51.3L71.9,51.9C72,52.9 72,53.9 72.1,54.8L72.1,54.9L72.2,54.9L74.1,55.2L72.7,55.4L72.3,55.5C72.4,56.3 72.5,57.1 72.5,57.9C72.6,58.4 72.6,58.9 72.7,59.4C72.7,59.6 72.8,59.9 72.8,60.1C72.9,60.5 72.9,60.9 73,61.4C73,61.6 73,61.7 73.1,61.9C73.2,62.4 73.2,62.9 73.3,63.4C73.3,63.6 73.4,63.7 73.4,63.9C73.5,64.4 73.9,66.4 74,66.9C74.1,67.3 74.1,67.7 74.2,68C74.2,68.2 74.3,68.4 74.3,68.6C74.4,69 74.5,69.4 74.5,69.8C74.5,70 74.6,70.1 74.6,70.3C74.7,70.7 74.8,71 74.8,71.4C74.8,71.5 74.8,71.6 74.9,71.6C75,72.1 75.1,72.5 75.2,73C75.3,73.4 75.4,73.8 75.5,74.1C75.6,74.4 75.7,74.7 75.8,75C75.9,75.2 75.9,75.4 76,75.6C76.1,75.9 76.2,76.2 76.3,76.5C76.3,76.6 76.4,76.7 76.4,76.8C76.5,77.1 76.6,77.4 76.7,77.6C76.7,77.8 76.8,77.9 76.8,78.1C76.9,78.4 77,78.6 77,78.9C77.1,79.2 77.2,79.5 77.3,79.8C77.4,80 77.5,80.3 77.6,80.5C77.6,80.9 77.7,81 77.7,81.2Z" style="fill:rgb(63,63,63);fill-rule:nonzero;"/>
            </g>
            <g>
                <path d="M143,80.6C143,80.6 141.6,81.1 139.3,81.1C138.8,81.1 138.3,81.1 137.7,81L137.3,81.7L136.7,80.9C136,80.8 135.2,80.6 134.4,80.4L134.3,80.4C134.2,80.1 134.2,79.9 134.1,79.6C133.9,78.9 133.7,78.3 133.4,77.8L133.3,77.7C133.3,77.7 133.2,77.4 132.9,77C132.9,77 132.9,76.9 132.8,76.9C132.5,76.5 132.1,75.9 131.6,75.4C131.5,75.3 131.3,75.1 131.2,75C131,74.8 130.7,74.6 130.4,74.4C129.6,73.9 128.6,73.5 127.5,73.3L126.2,73.3C125.8,73.3 125.3,73.4 124.9,73.5C124,73.7 123,74.1 121.9,74.6C117.9,76.7 113.2,80.1 108.1,83L107.9,84.1L107.5,83.3C102.3,86.3 96.8,88.8 91.1,89L89.9,89C89.1,89 88.4,89 87.7,88.9C87.2,88.9 86.6,88.8 86.1,88.7C85.5,88.6 85,88.5 84.5,88.4C84.3,88.4 84.2,88.3 84,88.3C83.4,86.4 82.1,84.5 79.6,83.3C79.1,83.1 78.7,82.9 78.2,82.7C78,82.6 77.8,82.6 77.6,82.5L77,83.2L76.8,82.3C76.4,82.2 76,82.2 75.6,82.2C75,82.2 74.5,82.3 74,82.4C72.3,82.8 70.9,83.8 69.4,84.7L69.2,85.5L68.6,85.1C67.6,85.7 66.6,86.1 65.4,86.4L68,91.3L66,96.4L68.7,96.4L69,96.1L69.2,96.4C70.4,96.5 71.8,96.6 73.3,96.8C73.3,97 73.2,97.2 73.2,97.4C73.2,97.4 73.8,100 77.6,102.3L77.9,102L78.1,102.6C80.5,103.9 84.2,105.1 89.6,105.4L91.1,105.4C93.7,105.4 96.2,105 98.6,104.4C100.1,104 101.6,103.5 103.1,102.9L103.4,102.1L104,102.5C104.6,102.2 105.2,102 105.8,101.7C109.4,100 112.7,97.9 115.7,95.9C118,94.4 120.1,93 122,91.9C122.1,91.9 122.1,91.8 122.2,91.8C122.7,91.5 123.1,91.3 123.5,91.1C124.4,90.6 125.4,90.2 126.2,90C127.6,89.6 128.7,89.4 129.7,89.4L130.4,89.4C130.9,91 131.7,92.4 133,93.5C134.4,94.7 136,95.2 137.5,95.3L137.8,94.6L138.4,95.3C141.5,95.2 144.2,93.5 144.2,93.5L139.4,87.6L143,80.6ZM74.1,88.3C74.1,89.6 74,91.3 73.8,93.2C73.5,93.2 73.2,93.3 72.9,93.3C72.1,93.4 71.4,93.6 71.4,93.6C71.4,93.6 72,93.8 72.7,94.1L69.6,94.2L71.6,94.9C70.6,94.8 69.6,94.7 68.7,94.7L69.8,92.2L69.8,92.1L72.3,91.4L69.7,90.7L69.7,90.6L68.1,87.6C69.2,87.1 70.2,86.5 71.2,85.9C72.2,85.3 73.1,84.7 74.1,84.4C74.1,84.6 74.2,84.8 74.2,85L70.5,87.2L74.2,85.6C74.3,86.2 74.3,87 74.3,87.9L73,88.4L74.1,88.3ZM129.7,87.7C128.5,87.7 127.1,87.9 125.7,88.3C122.7,89.2 119.4,91.3 115.6,93.8C108.9,98.2 100.6,103.6 91,103.6L89.6,103.6C78.3,103 75.5,98.5 75,97.3C75.8,92.8 76,89.4 75.9,87.1C78.8,88.8 83.6,90.8 90.1,90.8L91.3,90.8C100,90.5 108.2,85.2 115.4,80.6C118,78.9 120.5,77.3 122.7,76.2C124.1,75.5 125.5,75.1 126.7,75.1C130.2,75.1 131.7,78.4 131.7,78.5L131.7,78.6L131.8,78.7C132.9,80.6 133.4,85 133.6,88.7C132.6,88.1 131.3,87.7 129.7,87.7ZM141.4,93C140.4,93.4 139.2,93.7 137.9,93.7C137.2,93.7 136.6,93.6 136,93.4L136.7,93.4C137.5,93.4 138.3,93.3 138.9,93.1C139.5,93 139.8,92.8 139.8,92.8C139.8,92.8 139.4,92.8 138.9,92.6C138.4,92.5 137.7,92.2 137.1,91.9C136.6,91.6 136.2,91.3 135.9,91.1C136.9,91.2 137.8,91.2 137.8,91.2C137.8,91.2 136.9,90.8 136.2,90.3C135.9,90.1 135.6,89.9 135.4,89.7C135.4,88.3 135.3,86.6 135.1,84.9L136.2,84.8L135.1,84.5C135.1,84.1 135,83.7 134.9,83.2C135.1,83.2 135.4,83.3 135.6,83.3C136.4,83.4 137.1,83.3 137.1,83.3C137.1,83.3 136.4,83.2 135.7,83C135.4,82.9 135.1,82.8 134.8,82.7C134.8,82.5 134.7,82.4 134.7,82.2C136.2,82.6 137.8,82.7 139.3,82.7L139.9,82.7L137.8,86.7L137.4,87.4L136,87.7L137.9,88.6L141.4,93Z" style="fill:rgb(63,63,63);fill-rule:nonzero;"/>
                <path d="M122.8,88.4C122.8,88.4 122.6,88.5 122.2,88.6C121.8,88.7 121.3,88.9 120.6,89.2C119.3,89.8 117.5,90.7 115.4,92C114.4,92.6 113.2,93.3 112.1,94.1C110.9,94.8 109.7,95.6 108.4,96.3C105.8,97.8 102.9,99.3 99.9,100.3C98.4,100.8 96.9,101.3 95.3,101.6C93.8,101.9 92.2,102.1 90.8,102.1C89.3,102.1 87.9,102 86.5,101.9C85.1,101.7 83.9,101.4 82.7,101.1C80.4,100.4 78.6,99.5 77.5,98.6C76.4,97.8 75.8,97.2 75.8,97.2C75.8,97.2 75.9,97.4 76.2,97.7C76.4,98 76.8,98.4 77.4,98.9C77.9,99.4 78.6,99.9 79.5,100.4C80.4,100.9 81.4,101.4 82.5,101.8C84.8,102.7 87.7,103.2 90.8,103.2C92.3,103.2 94,103.1 95.6,102.8C97.2,102.5 98.8,102.1 100.3,101.5C103.4,100.4 106.3,98.8 108.9,97.2C110.2,96.4 111.4,95.6 112.6,94.8C113.8,94 114.8,93.3 115.8,92.6C116.8,91.9 117.7,91.3 118.5,90.7C119.3,90.2 120.1,89.7 120.7,89.4C121.3,89.1 121.8,88.8 122.2,88.7C122.6,88.5 122.8,88.4 122.8,88.4Z" style="fill:rgb(63,63,63);fill-rule:nonzero;"/>
                <path d="M111.5,84.4C112.5,83.9 113.7,83.2 115,82.5C116.3,81.8 117.6,81 118.9,80.2C119.6,79.8 120.2,79.4 120.9,79C121.6,78.6 122.2,78.2 122.8,77.9C123.4,77.6 124,77.2 124.6,77C125.2,76.7 125.8,76.5 126.3,76.4C126.8,76.3 127.3,76.2 127.8,76.2C128.2,76.2 128.6,76.4 128.9,76.5C129.2,76.7 129.4,76.8 129.5,76.9C129.6,77 129.7,77.1 129.7,77.1C129.7,77.1 129.6,77 129.5,76.9C129.4,76.8 129.2,76.6 128.9,76.4C128.6,76.2 128.2,76 127.7,75.9C127.2,75.8 126.7,75.8 126.1,75.9C124.9,76.1 123.6,76.6 122.3,77.3C121,77.9 119.7,78.7 118.3,79.5C117,80.3 115.7,81.1 114.5,81.9C113.3,82.7 112.1,83.4 111.2,84C110.2,84.6 109.4,85.1 108.8,85.4C108.2,85.7 107.9,85.9 107.9,85.9C107.9,85.9 108.3,85.8 108.9,85.5C109.6,85.3 110.5,84.9 111.5,84.4Z" style="fill:rgb(63,63,63);fill-rule:nonzero;"/>
                <path d="M79.7,90.1C80.4,90.4 81.2,90.7 82,90.9C82.9,91.1 83.8,91.4 84.8,91.5C85.8,91.6 86.7,91.7 87.6,91.8C88.5,91.8 89.4,91.8 90.1,91.7C90.8,91.7 91.4,91.5 91.8,91.5C92.2,91.4 92.5,91.4 92.5,91.4L90.1,91.4C89.4,91.4 88.5,91.3 87.7,91.3C86.8,91.2 85.9,91.1 84.9,91C84,90.9 83,90.7 82.2,90.5C81.3,90.3 80.5,90.1 79.8,89.8C79.1,89.6 78.5,89.4 78.2,89.2C77.8,89.1 77.6,89 77.6,89C77.6,89 77.8,89.1 78.2,89.3C78.5,89.5 79.1,89.8 79.7,90.1Z" style="fill:rgb(63,63,63);fill-rule:nonzero;"/>
            </g>
            <g>
                <path d="M120.8,69.8C120.9,69.7 121,69.6 121,69.6C121.1,69.5 121.1,69.4 121.2,69.4C121.3,69.3 121.3,69.2 121.4,69.2C121.5,69.1 121.6,68.9 121.6,68.8C121.6,68.7 121.7,68.7 121.7,68.6L121.7,68.5L121.8,68.3C121.8,68.3 121.8,68.2 121.9,68L121.9,66.2C121.9,66.1 121.9,66 121.8,65.9C121.7,65.4 121.5,64.9 121.2,64.3C120.9,63.8 120.5,63.2 120.1,62.6C119.8,62.3 119.5,61.9 119.2,61.6C120.3,60.3 121.1,59 121.6,57.8C121.8,57.2 122,56.5 122.1,56L122.1,54.8C122.1,54.7 122.1,54.6 122,54.5C122,54.3 121.9,54.1 121.9,53.9L121.9,53.7C121.9,53.7 121.9,53.6 121.8,53.6L121.7,53.4L121.7,53.3C121.7,53.3 121.6,53.2 121.5,53C121.5,53 121.4,52.9 121.4,52.8C121.4,52.7 121.3,52.7 121.3,52.6C121.2,52.5 121.1,52.3 120.9,52.2C120.8,52.1 120.7,52 120.7,52C120.6,51.9 120.5,51.8 120.4,51.8C120.4,51.8 120.3,51.7 120.2,51.7C120.1,51.7 120.1,51.6 120,51.6C119.9,51.5 119.8,51.4 119.6,51.4C119.1,51.1 118.5,50.9 117.8,50.7C117.1,50.5 116.4,50.4 115.6,50.3C114.8,50.2 114,50.3 113.1,50.3C112,50.4 110.9,50.6 109.7,50.8C109.3,49.8 108.8,48.9 108.3,48.1C107.9,47.4 107.4,46.7 107,46.2C107.2,45.9 107.4,45.5 107.4,45.1C107.4,44 106.5,43.1 105.4,43.1C104.8,43.1 104.3,43.3 103.9,43.7L103.8,43.7C103.7,43.7 103.7,43.7 103.6,43.6L103.4,43.6C103.3,43.6 103.2,43.5 103.1,43.5L101.1,43.5C101,43.5 100.8,43.6 100.7,43.6C100.6,43.6 100.5,43.7 100.4,43.7C100.3,43.7 100.2,43.8 100.1,43.8C100.1,43.8 100,43.8 100,43.9L99.9,44C99.8,44.1 99.7,44.1 99.6,44.2C99.2,44.5 98.8,44.9 98.4,45.4C98,45.9 97.6,46.5 97.3,47.1C96.9,47.8 96.6,48.5 96.3,49.3C96,50.1 95.7,51 95.5,52L94.5,52C93.8,52 93.1,52 92.4,52.1C91.7,52.2 91,52.3 90.3,52.4C89.6,52.5 88.9,52.7 88.2,53C87.5,53.3 86.8,53.7 86.2,54.2L86,54.3L85.6,54.7C85.5,54.8 85.5,54.9 85.4,55L85.2,55.2C85.1,55.3 85.1,55.4 85,55.5L85,56.1C84.9,56.5 84.8,57 84.8,57.4L84.8,58.4L84.9,58.7C85.1,59.5 85.4,60.2 85.8,60.9C86.2,61.6 86.7,62.1 87.1,62.7C87.5,63.2 88,63.6 88.4,64C88.2,64.3 88,64.6 87.8,64.9C87.4,65.5 87.1,66.1 86.8,66.8C86.5,67.5 86.3,68.1 86.3,68.9L86.3,70C86.3,70.1 86.3,70.2 86.4,70.3L86.5,70.6L86.5,70.7L86.6,70.8L86.7,71L86.7,71.1L86.8,71.2C86.8,71.3 86.9,71.4 87,71.4L88.2,72.6C88.5,72.8 88.9,73 89.2,73.1C89.2,74.2 90.1,75 91.2,75C92,75 92.8,74.5 93.1,73.7L94.3,73.7C95.2,73.7 96,73.6 96.9,73.4C97.3,74.5 97.8,75.7 98.4,76.8L99,77.8C99.1,78 99.2,78.1 99.3,78.3C99.4,78.5 99.5,78.6 99.6,78.8C100,79.4 100.5,80 101.1,80.5C101.2,80.6 101.4,80.8 101.5,80.9C101.7,81 101.8,81.2 102,81.3C102.2,81.4 102.3,81.5 102.5,81.6C102.7,81.7 102.9,81.8 103.1,81.9L103.4,82L103.8,82.2L104.1,82.3C104.2,82.3 104.3,82.4 104.4,82.4L105.8,82.4C106,82.4 105.9,82.4 105.9,82.4L106.2,82.4C106.3,82.4 106.4,82.4 106.5,82.3L106.8,82.2C106.9,82.2 107,82.1 107.1,82.1C107.2,82.1 107.3,82 107.4,82L107.7,81.8L107.9,81.6L108.2,81.4C108.4,81.3 108.5,81.1 108.7,81C108.8,80.9 109,80.7 109.1,80.6C109.2,80.4 109.4,80.3 109.5,80.1C109.6,79.9 109.7,79.8 109.9,79.6C110.4,79 110.7,78.3 111,77.6C111.3,76.9 111.6,76.2 111.8,75.6C112.1,74.5 112.4,73.5 112.6,72.4C113.4,72.4 114.2,72.3 115,72.2C115.9,72.1 116.7,71.9 117.4,71.7C117.7,72.3 118.4,72.7 119.1,72.7C120.2,72.7 121.1,71.8 121.1,70.7C121,70.4 120.9,70.1 120.8,69.8ZM120.8,57C120.9,56.8 120.9,56.5 120.9,56.3C120.9,56 121,55.8 121,55.6L121,54.2L121,54.4C121,54.5 121.1,54.7 121.1,54.9L121.1,55.6C121.1,55.8 121.1,56.1 121,56.4C121,56.7 120.9,56.9 120.8,57.1C120.7,57.3 120.7,57.5 120.6,57.7C120.5,57.9 120.5,58 120.4,58.1C120.3,58.2 120.3,58.3 120.3,58.3C120.3,58.3 120.3,58.2 120.4,58.1C120.4,58 120.5,57.8 120.5,57.7C120.7,57.4 120.8,57.2 120.8,57ZM114,51.4C114.4,51.4 115,51.3 115.8,51.4C116.2,51.4 116.6,51.5 117,51.6C117.4,51.7 117.8,51.8 118.3,52C118.7,52.2 119.2,52.4 119.5,52.8C119.7,53 119.9,53.2 120,53.4C120.1,53.6 120.3,53.8 120.4,54.1C120.6,54.6 120.7,55.1 120.7,55.6C120.7,56.1 120.7,56.6 120.6,57C120.5,57.5 120.4,57.9 120.2,58.3C120,58.7 119.9,59 119.7,59.4C119.3,60 118.9,60.5 118.6,60.8C118.5,61 118.3,61.1 118.2,61.1C118.1,61 118,61 118,61L118.1,60.9C118.2,60.8 118.3,60.7 118.4,60.5C118.7,60.2 119,59.7 119.3,59C119.6,58.4 119.9,57.6 120,56.7C120.1,56.3 120.1,55.8 120.1,55.4C120.1,55 120,54.5 119.8,54.1C119.8,54 119.7,53.9 119.7,53.8C119.7,53.7 119.6,53.6 119.5,53.5C119.4,53.4 119.4,53.3 119.3,53.2C119.2,53.1 119.2,53 119.1,53C118.9,52.8 118.8,52.7 118.6,52.6C118.4,52.5 118.2,52.4 118,52.3C117.6,52.1 117.2,52 116.8,51.9C116.4,51.8 116,51.7 115.7,51.7C115,51.6 114.4,51.5 114,51.5L113.3,51.5C113.3,51.5 113.6,51.4 114,51.4ZM113.3,52.2C114.1,52.2 114.8,52.2 115.5,52.3C116.2,52.4 116.7,52.5 117.2,52.7C117.7,52.9 118.1,53 118.4,53.2C118.5,53.2 118.5,53.3 118.6,53.3C118.6,53.3 118.7,53.3 118.7,53.4C118.7,53.4 118.8,53.4 118.8,53.5C118.9,53.5 118.9,53.6 118.9,53.6L119,53.7C119.1,53.8 119.1,53.9 119.2,53.9C119.2,53.9 119.2,54 119.3,54L119.3,54.1C119.3,54.2 119.4,54.2 119.4,54.2C119.4,54.2 119.4,54.3 119.5,54.4C119.5,54.4 119.5,54.5 119.6,54.5C119.6,54.6 119.6,54.6 119.7,54.7L119.7,55.5C119.7,55.9 119.6,56.3 119.4,56.8C119.2,57.3 119,57.8 118.7,58.4C118.4,58.9 118.1,59.4 117.7,59.9C116.6,59 115.4,58.1 114,57.3C113.3,56.9 112.5,56.5 111.7,56.1C111.4,55 111.1,54 110.8,53.1C110.7,52.8 110.6,52.6 110.5,52.4C111.5,52.4 112.4,52.3 113.3,52.2ZM112.7,62.6C112.7,62.3 112.6,62 112.6,61.7C112.5,61.1 112.4,60.5 112.3,59.9C112.2,59.1 112,58.4 111.9,57.7C112.4,57.9 112.9,58.2 113.4,58.5C114.8,59.3 116.1,60.1 117.1,60.9C116.2,62.1 115,63.3 113.6,64.4C113.4,64.6 113.1,64.8 112.8,65C112.8,64.5 112.7,64.1 112.7,63.6C112.8,63.2 112.7,62.9 112.7,62.6ZM109.2,72.2C109.5,72.2 109.7,72.2 110,72.3C110,72.5 109.9,72.7 109.9,72.9C109.8,73.5 109.6,74.1 109.4,74.7L109,75.5C108.9,75.6 108.9,75.8 108.8,75.9C108.7,76 108.7,76.2 108.6,76.3C108.3,76.9 108,77.4 107.7,77.9C107.4,78.4 107,78.8 106.6,79.1L106.4,79.2L106.3,79.3L106.2,79.3C106.2,79.3 105.9,79.4 105.8,79.5C105.7,79.5 105.7,79.5 105.6,79.6L104.4,79.6L104.2,79.5L104,79.5C103.9,79.5 103.9,79.5 103.8,79.4C103.3,79.2 102.9,78.9 102.5,78.5C102.1,78.1 101.7,77.6 101.3,77.1C100.9,76.6 100.6,76.1 100.3,75.5C100,75 99.7,74.4 99.4,73.8C99.3,73.5 99.1,73.2 99,72.9L99,72.8C100,72.6 100.9,72.3 101.9,72C102.6,71.8 103.3,71.5 103.9,71.3C105.9,71.8 107.6,72.1 109.2,72.2ZM98.9,72.2C98.9,72.2 98.9,72.1 98.9,72.2C98.6,71.3 98.3,70.5 98,69.7C98.3,69.8 98.6,69.9 99,70.1C99.3,70.2 100.5,70.6 100.8,70.7C101.3,70.9 101.9,71 102.4,71.2C102.2,71.3 102,71.4 101.8,71.4C100.8,71.6 99.9,71.9 98.9,72.2ZM109.3,71.1C108.3,71 107.4,70.8 106.3,70.6C106.4,70.6 106.4,70.5 106.5,70.5C106.8,70.4 107.1,70.2 107.3,70.1C107.9,69.8 108.4,69.6 108.9,69.3C109.4,69 109.9,68.8 110.4,68.5C110.3,69.4 110.2,70.2 110.1,71.1L110.1,71.2C109.9,71.1 109.6,71.1 109.3,71.1ZM109.4,53.7C109.6,54.3 109.7,54.9 109.8,55.5C109.2,55.2 108.5,54.9 107.8,54.7C107,54.4 106.2,54.1 105.3,53.8C106.2,53.5 107,53.3 107.9,53.1C108.3,53 108.7,52.9 109.1,52.8C109.2,53 109.3,53.4 109.4,53.7ZM105.9,46.6C106,46.6 106,46.6 106.1,46.5C106.2,46.5 106.2,46.4 106.3,46.4C106.4,46.4 106.4,46.3 106.5,46.3L106.6,46.2C106.6,46.1 106.7,46.1 106.7,46C106.7,45.9 106.8,45.9 106.8,45.8C106.8,45.7 106.9,45.7 106.9,45.6C106.9,45.5 107,45.5 107,45.4C107,45.3 107.1,45.2 107.1,45L107.1,44.7C107.1,44.5 107,44.3 107,44.2C107,44.1 106.9,44 106.9,44C106.9,44 106.9,44.1 107,44.1C107.1,44.2 107.1,44.4 107.2,44.6L107.2,44.9C107.2,45 107.2,45.2 107.1,45.3C107.1,45.4 107.1,45.4 107,45.5C107,45.6 106.9,45.6 106.9,45.7C106.9,45.8 106.8,45.8 106.8,45.9C106.8,46 106.7,46 106.7,46.1C106.6,46.2 106.6,46.2 106.5,46.3C106.4,46.3 106.4,46.4 106.3,46.4C106.2,46.4 106.2,46.5 106.1,46.5C106,46.5 106,46.6 105.9,46.6C105.8,46.6 105.6,46.7 105.5,46.7L105.1,46.7C104.9,46.7 104.7,46.6 104.6,46.5C104.5,46.5 104.5,46.4 104.5,46.4C104.5,46.4 104.6,46.4 104.7,46.5C104.8,46.5 105,46.6 105.2,46.6L105.9,46.6ZM104.2,43.5C104.6,43.2 105,43.1 105.2,43.2C105.3,43.3 105.2,43.4 105.2,43.6C105.3,43.6 105.4,43.6 105.4,43.7C105.5,43.8 105.4,44.1 105.2,44.3C105,44.5 104.7,44.5 104.6,44.4L104.6,44.3C104.3,44.5 104,44.6 103.8,44.4C103.6,44.2 103.8,43.8 104.2,43.5ZM97.3,49.5C97.5,48.7 97.8,48 98.1,47.4C98.4,46.8 98.7,46.2 99.1,45.7C99.4,45.2 99.8,44.9 100.1,44.6C100.2,44.5 100.3,44.5 100.4,44.4L100.5,44.3C100.5,44.3 100.6,44.3 100.6,44.2C100.7,44.2 100.8,44.1 100.8,44.1C100.9,44.1 100.9,44 101,44C101.1,43.9 101.3,43.9 101.4,43.9L102.4,43.9C102.5,43.9 102.6,43.9 102.8,44C102.9,44 102.9,44 103,44.1C103.1,44.1 103.2,44.2 103.2,44.2L103.3,44.2C103.3,44.2 103.4,44.2 103.4,44.3C103.3,44.6 103.2,44.8 103.2,45.1C103.2,46.2 104.1,47.1 105.2,47.1C105.6,47.1 105.9,47 106.2,46.8C106.6,47.3 107,48 107.3,48.6C107.7,49.4 108,50.2 108.4,51.1C108,51.2 107.7,51.3 107.3,51.4C105.8,51.9 104.3,52.4 102.8,53.1C102,52.9 101.2,52.7 100.4,52.6C99.1,52.3 97.8,52.2 96.5,52C96.9,51.1 97.1,50.2 97.3,49.5ZM96.4,54.9C96.4,54.5 96.5,54.1 96.5,53.6L96.6,53.6C97.9,53.7 99.2,53.8 100.4,54C100.5,54 100.7,54 100.8,54.1C100.7,54.2 100.6,54.2 100.5,54.3C100.4,54.4 100.2,54.4 100.1,54.5L99.7,54.7C99.4,54.9 99.2,55 98.9,55.2C98.6,55.4 98.4,55.5 98.1,55.7C97.5,56 97,56.4 96.4,56.8C96.3,56.1 96.3,55.5 96.4,54.9ZM98.5,56.6C98.8,56.5 99,56.3 99.3,56.2C99.6,56.1 99.8,55.9 100.1,55.8L100.5,55.6C100.6,55.5 100.8,55.5 100.9,55.4C101.2,55.3 101.4,55.2 101.7,55C102.1,54.8 102.5,54.7 103,54.5C104.5,54.8 106,55.3 107.4,55.7C108.3,56 109.2,56.3 110.1,56.7C110.3,57.8 110.4,58.9 110.5,60C110.5,60.3 110.6,60.6 110.6,60.9L110.6,63.5C110.6,64.5 110.6,65.5 110.5,66.5C109.8,67 109,67.5 108.2,68C107.7,68.3 107.2,68.6 106.7,68.9C106.4,69 106.2,69.2 105.9,69.3C105.6,69.4 105.4,69.6 105.1,69.7C104.9,69.8 104.6,69.9 104.4,70C103.9,69.9 103.4,69.7 102.8,69.5C102.2,69.3 101.7,69.1 101.1,68.9C100.8,68.8 100.5,68.7 100.2,68.6C99.9,68.5 99.6,68.4 99.4,68.3C98.7,68 98,67.7 97.3,67.4C97.1,66.5 96.9,65.7 96.8,64.8C96.7,64.2 96.6,63.6 96.5,63L96.5,62.6C96.5,62.5 96.5,62.3 96.4,62.2C96.4,61.9 96.3,61.6 96.3,61.3C96.2,60.1 96.1,58.9 96.1,57.8C97,57.4 97.8,57 98.5,56.6ZM90,62.9C90.2,62.6 90.5,62.4 90.7,62.1C90.9,61.9 91.2,61.6 91.4,61.4C91.6,61.2 91.9,61 92.1,60.8C92.9,60.1 93.8,59.5 94.6,58.9L94.6,61.5C94.6,63.1 94.8,64.7 95,66.4C94.8,66.3 94.6,66.2 94.4,66.1C94.3,66 94.1,65.9 94,65.9C93.9,65.8 93.7,65.7 93.6,65.7C93.3,65.5 93.1,65.4 92.8,65.2C91.9,64.4 90.9,63.7 90,62.9ZM92.2,65.4C92.2,65.4 92.1,65.4 92,65.3C91.9,65.2 91.7,65.1 91.4,65C91.2,64.9 90.9,64.7 90.6,64.5C90.3,64.3 90.1,64.1 89.8,63.9C89.5,63.7 89.3,63.5 89,63.2C88.8,63 88.6,62.8 88.4,62.6C88.2,62.4 88.1,62.2 88,62.1L87.9,62C87.9,62 88,62.1 88.1,62.2C88.2,62.3 88.4,62.5 88.6,62.6C88.8,62.8 89,63 89.3,63.2C89.5,63.4 89.8,63.6 90.1,63.8C90.4,64 90.6,64.2 90.9,64.4C91.2,64.6 91.4,64.8 91.6,64.9C91.8,65 92,65.2 92.1,65.2C92.1,65.4 92.2,65.4 92.2,65.4ZM95.1,54.8C95,55.8 94.9,56.8 94.8,57.8C93.7,58.6 92.7,59.4 91.7,60.3C91.5,60.5 90.5,61.5 90.3,61.7C90,62 89.8,62.2 89.6,62.5C89.2,62.2 88.9,61.8 88.5,61.4C88.1,60.9 87.7,60.4 87.4,59.9C87.3,59.8 87.3,59.6 87.2,59.5C87.1,59.4 87.1,59.2 87,59.1C86.9,59 86.9,58.8 86.8,58.7C86.8,58.6 86.7,58.4 86.7,58.3C86.6,57.8 86.6,57.3 86.7,56.8L86.7,56.5C86.7,56.5 86.7,56.4 86.8,56.4L86.8,56.3L86.9,56.2C86.9,56.1 87,56.1 87,56C87,56 87.6,55.4 87.7,55.3C87.8,55.2 87.9,55.1 88.1,55.1C88.2,55 88.4,55 88.5,54.9C88.6,54.8 88.8,54.8 88.9,54.7C89.5,54.5 90.1,54.3 90.7,54.1C91.3,54 91.9,53.9 92.6,53.8C93.5,53.7 94.3,53.7 95.2,53.7C95.2,54 95.2,54.4 95.1,54.8ZM86.4,56C86.3,56.2 86.3,56.3 86.2,56.5C86.2,56.7 86.1,56.8 86.1,56.9C86.1,57 86.1,57.1 86,57.2L86,57.3L86,56.9C86,56.8 86,56.6 86.1,56.4C86.1,56.2 86.2,56.1 86.3,55.9C86.4,55.7 86.5,55.6 86.6,55.4C86.7,55.3 86.8,55.1 86.9,55C87,55 87,55 87.1,54.9C87.2,54.9 87.2,54.8 87.2,54.8L87.1,54.9C87,55 87,55 86.9,55.2C86.8,55.3 86.7,55.4 86.6,55.6C86.6,55.7 86.5,55.9 86.4,56ZM93.1,52.9L95.3,52.9L95.1,52.9C94.9,53 94.8,53 94.6,52.9C94.4,53 94.2,53 93.9,53C93.6,53 93.4,53 93.1,53.1C92.8,53.1 92.6,53.1 92.3,53.2L90.9,53.2L91.1,53.2C91.2,53.2 91.4,53.1 91.6,53.1C91.8,53.1 92,53 92.3,53C92.6,53 92.8,52.9 93.1,52.9ZM87,61.9C86.7,61.6 86.4,61.2 86.2,60.8C85.9,60.4 85.7,59.9 85.5,59.4C85.3,58.9 85.1,58.3 85.1,57.7C85,57.1 85.1,56.5 85.3,55.9C85.5,55.3 85.9,54.8 86.3,54.4C86.7,54 87.2,53.7 87.7,53.5C88.2,53.3 88.7,53.1 89.2,53C89.7,52.9 90.1,52.8 90.6,52.7C91.5,52.6 92.2,52.5 92.7,52.5L93.5,52.5C93.5,52.5 93.2,52.5 92.7,52.6C92.2,52.7 91.5,52.8 90.7,53C89.9,53.2 88.9,53.5 88,54C87.5,54.2 87.1,54.5 86.7,54.9C86.3,55.3 86,55.7 85.8,56.2C85.6,56.7 85.5,57.2 85.6,57.8C85.6,58.3 85.8,58.9 85.9,59.3C86.3,60.3 86.8,61.1 87.3,61.8C87.8,62.5 88.3,63 88.6,63.4C88.9,63.8 89.1,64 89.1,64C89.1,64 88.9,63.8 88.5,63.5C88.1,63.1 87.6,62.6 87,61.9ZM89.6,72.4C89.5,72.2 89.7,71.8 90.1,71.5C90.5,71.2 90.9,71.1 91.1,71.2C91.2,71.3 91.1,71.4 91.1,71.6C91.2,71.6 91.3,71.6 91.3,71.7C91.4,71.8 91.3,72.1 91.1,72.3C90.9,72.5 90.6,72.5 90.5,72.4L90.5,72.3C90,72.5 89.7,72.6 89.6,72.4ZM93,73C93,73 93,73.1 93,73C93,73.2 93,73.4 92.9,73.5C92.9,73.6 92.9,73.6 92.8,73.7C92.8,73.8 92.7,73.8 92.7,73.9C92.7,74 92.6,74 92.6,74.1C92.6,74.2 92.5,74.2 92.5,74.3C92.4,74.4 92.4,74.4 92.3,74.5C92.2,74.5 92.2,74.6 92.1,74.6C92,74.6 92,74.7 91.9,74.7C91.8,74.7 91.8,74.8 91.7,74.8C91.6,74.8 91.4,74.9 91.3,74.9L90.9,74.9C90.7,74.9 90.5,74.8 90.4,74.7C90.3,74.7 90.3,74.6 90.3,74.6C90.3,74.6 90.4,74.6 90.5,74.7C90.6,74.7 90.8,74.8 91,74.8L91.3,74.8C91.4,74.8 91.5,74.7 91.7,74.7C91.8,74.7 91.8,74.7 91.9,74.6C92,74.6 92,74.5 92.1,74.5C92.2,74.5 92.2,74.4 92.3,74.4L92.4,74.3C92.4,74.2 92.5,74.2 92.5,74.1C92.5,74 92.6,74 92.6,73.9C92.6,73.8 92.7,73.8 92.7,73.7C92.7,73.6 92.8,73.6 92.8,73.5C92.8,73.4 92.9,73.3 92.9,73.1L92.9,72.8C92.9,72.6 92.8,72.4 92.8,72.3C92.8,72.2 92.7,72.1 92.7,72.1C92.7,72.1 92.7,72.2 92.8,72.2C92.9,72.3 92.9,72.5 93,72.7L93,73ZM96.1,72.8C95.5,72.9 94.8,73 94.1,73L93.1,73L93.1,72.9C93.1,71.8 92.2,70.9 91.1,70.9C90.2,70.9 89.4,71.5 89.2,72.4C89.1,72.3 88.9,72.3 88.8,72.2C88.7,72.1 88.5,72 88.4,72L88.2,71.9L88.1,71.8L88,71.8C88,71.8 87.5,71.3 87.4,71.2C87.4,71.2 87.2,70.9 87.2,70.8L87.1,70.7L87.1,70.6L87,70.5L87,70.2L86.9,70L86.9,69C86.9,68.4 87.1,67.7 87.4,67.1C87.7,66.5 88,65.9 88.3,65.3C88.5,65 88.7,64.8 88.8,64.5C89.3,64.9 89.7,65.3 90.2,65.6C90.5,65.8 91.7,66.6 92,66.8C92.3,67 92.6,67.2 92.9,67.3C93,67.4 93.2,67.5 93.3,67.5C93.4,67.6 93.6,67.7 93.7,67.7C94,67.9 94.3,68 94.6,68.2C94.9,68.4 95.2,68.5 95.5,68.6L95.6,68.6C95.6,68.8 95.7,68.9 95.7,69.1C96,70.3 96.3,71.5 96.7,72.8C96.4,72.7 96.3,72.8 96.1,72.8ZM100.4,78.7C100.3,78.5 100.1,78.3 99.9,78C99.7,77.7 99.5,77.4 99.3,77C99.1,76.6 98.9,76.2 98.6,75.8C98.4,75.4 98.2,75 98,74.6C97.8,74.2 97.7,73.8 97.6,73.5C97.5,73.2 97.4,72.9 97.4,72.7C97.3,72.5 97.3,72.4 97.3,72.4C97.3,72.4 97.3,72.5 97.4,72.7C97.5,72.9 97.6,73.1 97.7,73.5C97.8,73.8 98,74.2 98.2,74.6C98.4,75 99.2,76.6 99.4,77C99.6,77.4 99.8,77.7 100,78C100.2,78.3 100.3,78.6 100.4,78.7C100.5,78.8 100.6,78.9 100.6,78.9C100.6,78.9 100.5,78.9 100.4,78.7ZM109.8,76.3C109.7,76.7 109.5,77.1 109.3,77.5C109.1,77.9 108.9,78.3 108.6,78.7C108.3,79.1 108,79.5 107.6,79.9C107.2,80.3 106.7,80.6 106.2,80.7C106.1,80.7 105.9,80.8 105.8,80.8L105.5,80.8C105.2,80.8 105,80.8 104.7,80.7C104.2,80.6 103.7,80.4 103.2,80.2C102.8,80 102.4,79.6 102,79.3C101.7,79 101.4,78.7 101.1,78.3C100.6,77.7 100.3,77.1 100.1,76.7C99.9,76.3 99.8,76 99.8,76C99.8,76 99.9,76.2 100.2,76.6C100.5,77 100.8,77.5 101.3,78.1C101.6,78.4 101.9,78.7 102.2,79C102.5,79.3 102.9,79.5 103.3,79.8C103.7,80 104.2,80.2 104.6,80.2L105.7,80.2C105.8,80.2 105.9,80.2 106,80.1C106.5,80 106.9,79.7 107.2,79.4C107.6,79.1 107.9,78.7 108.2,78.3C108.8,77.5 109.2,76.7 109.5,76C109.8,75.3 110.1,74.7 110.2,74.3C110.4,73.9 110.4,73.6 110.4,73.6C110.4,73.6 110.4,73.9 110.3,74.3C110.3,74.9 110.1,75.5 109.8,76.3ZM111.7,71.5C111.6,71.9 111.6,72.4 111.5,72.8C111.4,73.2 111.3,73.7 111.2,74.1C111.1,74.5 111,74.9 110.9,75.2C110.8,75.5 110.7,75.8 110.6,76C110.5,76.2 110.5,76.3 110.5,76.3C110.5,76.3 110.5,76.2 110.6,76C110.7,75.8 110.7,75.5 110.8,75.2C110.9,74.9 111,74.5 111.1,74.1C111.2,73.7 111.3,73.2 111.4,72.8C111.5,72.4 111.6,71.9 111.6,71.5C111.7,71.1 111.7,70.7 111.8,70.4C111.8,70.1 111.9,69.8 111.9,69.6L111.9,69.3L111.9,70.4C111.8,70.7 111.8,71.1 111.7,71.5ZM117,71C116.3,71.2 115.6,71.3 114.8,71.3C114.1,71.4 113.4,71.4 112.7,71.4C112.9,70.1 113,68.7 113,67.4L113,67C113.6,66.6 114.3,66.2 114.8,65.7C116.4,64.5 117.7,63.3 118.8,62.1C119.1,62.4 119.4,62.7 119.7,63C120.2,63.5 120.5,64.1 120.8,64.6C120.8,64.7 120.9,64.7 120.9,64.8C120.9,64.9 121,64.9 121,65C121.1,65.1 121.1,65.2 121.2,65.4C121.2,65.5 121.3,65.6 121.3,65.7C121.3,65.8 121.4,65.9 121.4,66C121.4,66.1 121.4,66.2 121.5,66.3L121.5,67.7C121.5,67.8 121.4,67.9 121.4,67.9C121.4,67.9 121.4,68 121.3,68.1C121.3,68.1 121.3,68.2 121.2,68.2C121.2,68.2 121.2,68.3 121.1,68.3C121,68.4 121,68.5 120.9,68.6C120.9,68.7 120.8,68.7 120.8,68.8C120.7,68.9 120.5,69.1 120.5,69.1C120.1,68.7 119.6,68.5 119.1,68.5C118,68.5 117.1,69.4 117.1,70.5C117,70.8 117,70.9 117,71ZM117.4,70.2C117.3,70 117.5,69.6 117.9,69.3C118.3,69 118.7,68.9 118.9,69C119,69.1 118.9,69.2 118.9,69.4C119,69.4 119.1,69.4 119.1,69.5C119.2,69.6 119.1,69.9 118.9,70.1C118.7,70.3 118.4,70.3 118.3,70.2L118.3,70.1C117.8,70.3 117.5,70.3 117.4,70.2ZM120.9,70.9C120.9,71 120.9,71.2 120.8,71.3C120.8,71.4 120.8,71.4 120.7,71.5C120.7,71.6 120.6,71.6 120.6,71.7C120.6,71.8 120.5,71.8 120.5,71.9C120.5,72 120.4,72 120.4,72.1C120.3,72.2 120.3,72.2 120.2,72.3C120.1,72.3 120.1,72.4 120,72.4C119.9,72.4 119.9,72.5 119.8,72.5C119.7,72.5 119.7,72.6 119.6,72.6C119.5,72.6 119.3,72.7 119.2,72.7L118.8,72.7C118.6,72.7 118.4,72.6 118.3,72.5C118.2,72.5 118.2,72.4 118.2,72.4C118.2,72.4 118.3,72.4 118.4,72.5C118.5,72.5 118.7,72.6 118.9,72.6L119.2,72.6C119.3,72.6 119.4,72.5 119.6,72.5C119.7,72.5 119.7,72.5 119.8,72.4C119.9,72.4 119.9,72.3 120,72.3C120.1,72.3 120.1,72.2 120.2,72.2L120.3,72.1C120.3,72 120.4,72 120.4,71.9C120.4,71.8 120.5,71.8 120.5,71.7C120.5,71.6 120.6,71.6 120.6,71.5C120.6,71.4 120.7,71.4 120.7,71.3C120.7,71.2 120.8,71.1 120.8,70.9L120.8,70.6C120.8,70.4 120.7,70.2 120.7,70.1C120.7,70 120.6,69.9 120.6,69.9C120.6,69.9 120.6,70 120.7,70C120.8,70.1 120.8,70.3 120.9,70.5L120.9,70.9Z" style="fill:rgb(63,63,63);fill-rule:nonzero;"/>
                <path d="M103.6,58.2C101.3,58.2 99.5,60 99.5,62.3C99.5,64.6 101.3,66.4 103.6,66.4C105.9,66.4 107.7,64.6 107.7,62.3C107.7,60 105.9,58.2 103.6,58.2ZM100.4,61.1C100.1,60.8 100.6,60 101.4,59.3C102.2,58.7 103.1,58.4 103.4,58.8C103.5,59 103.5,59.3 103.3,59.6C103.5,59.6 103.6,59.7 103.7,59.8C103.9,60.1 103.7,60.6 103.3,61C102.9,61.4 102.3,61.4 102.1,61.1C102.1,61 102,61 102,60.9C101.2,61.3 100.6,61.4 100.4,61.1ZM106.7,64C106.8,64 106.8,63.8 106.8,63.8C106.8,63.7 106.9,63.7 106.9,63.6C107,63.5 107,63.3 107,63.2C107.1,62.9 107.1,62.7 107.2,62.4L107.2,61.7C107.2,61.3 107.1,60.9 107,60.7C107,60.6 106.9,60.5 106.9,60.4L106.9,60.3L107,60.4C107,60.5 107.1,60.5 107.1,60.7C107.2,60.9 107.4,61.3 107.4,61.7L107.4,63.1C107.4,63.2 107.4,63.2 107.3,63.3C107.3,63.4 107.2,63.6 107.2,63.7C107.2,63.8 107.1,63.8 107.1,63.9L107.1,64C107.1,64 107.1,64.1 107,64.1C107,64.2 106.9,64.2 106.9,64.3C106.9,64.4 106.8,64.4 106.8,64.5C106.8,64.6 106.7,64.6 106.7,64.7L106.5,64.9C106.5,65 106.4,65 106.3,65.1L106.1,65.3L105.9,65.4C105.8,65.4 105.8,65.5 105.7,65.5C105.6,65.5 105.6,65.6 105.5,65.6C105.4,65.6 105.4,65.7 105.3,65.7C105.2,65.7 105.2,65.8 105.1,65.8C105,65.8 105,65.8 104.9,65.9C104.6,66 104.4,66 104.1,66.1L103.4,66.1C102.9,66.1 102.6,65.9 102.3,65.8C102.2,65.7 102.1,65.7 102,65.7C101.9,65.7 101.9,65.6 101.9,65.6L102,65.6C102.1,65.6 102.2,65.7 102.3,65.7C102.5,65.8 102.9,65.9 103.3,65.9L104,65.9C104.2,65.9 104.5,65.8 104.8,65.7C104.9,65.7 104.9,65.7 105,65.6C105.1,65.6 105.1,65.5 105.2,65.5C105.3,65.5 105.3,65.4 105.4,65.4C105.5,65.4 105.5,65.3 105.6,65.3C105.7,65.3 105.7,65.2 105.8,65.2L106.2,65C106.3,65 106.3,64.9 106.4,64.8C106.4,64.8 106.6,64.5 106.6,64.4C106.6,64.3 106.7,64.3 106.7,64.2L106.7,64Z" style="fill:rgb(63,63,63);fill-rule:nonzero;"/>
                <path d="M98.4,43.5C98.6,43.4 98.9,43.2 99.3,43C99.7,42.8 100.1,42.6 100.6,42.5C100.8,42.4 101.1,42.4 101.4,42.3C101.7,42.2 101.9,42.2 102.2,42.2C102.5,42.2 102.7,42.1 103,42.1L103.8,42.1C104.1,42.1 104.3,42.1 104.5,42.2C104.7,42.2 104.9,42.3 105.2,42.3C105.6,42.4 105.9,42.5 106.2,42.6C106.3,42.6 106.4,42.7 106.5,42.7L106.6,42.7L106.5,42.6C106.4,42.6 106.4,42.5 106.3,42.5C106.1,42.4 105.8,42.2 105.4,42.1C105.2,42 105,42 104.7,41.9C104.5,41.8 104.2,41.8 103.9,41.8L102.3,41.8C102,41.8 101.7,41.9 101.5,42C101.2,42.1 101,42.2 100.7,42.2C100.2,42.4 99.8,42.6 99.4,42.8C98.8,43 98.5,43.3 98.4,43.5C98.3,43.5 98.2,43.6 98.2,43.6L98.1,43.7L98.2,43.6C98.2,43.6 98.3,43.5 98.4,43.5Z" style="fill:rgb(63,63,63);fill-rule:nonzero;"/>
                <path d="M101,45.1L102.1,45.1C102.2,45.1 102.3,45.1 102.4,45.2C102.5,45.2 102.6,45.3 102.7,45.3C102.9,45.4 103,45.5 103.1,45.5C103.2,45.6 103.3,45.7 103.4,45.7L103.5,45.8L103.4,45.7C103.4,45.6 103.3,45.5 103.2,45.4C103.1,45.3 103,45.2 102.8,45.1C102.7,45.1 102.6,45 102.5,45C102.4,45 102.3,44.9 102.2,44.9L101.6,44.9C101.5,44.9 101.4,44.9 101.3,45C101.2,45 101.1,45.1 101.1,45.1C101,45.2 100.8,45.2 100.8,45.3L100.7,45.4L100.8,45.4C100.8,45.1 100.9,45.1 101,45.1Z" style="fill:rgb(63,63,63);fill-rule:nonzero;"/>
                <path d="M91.9,75.6C92.1,75.6 92.2,75.7 92.4,75.7L94.2,75.7C94.4,75.7 94.6,75.7 94.8,75.6C95.2,75.5 95.5,75.5 95.8,75.4C95.9,75.4 96.1,75.3 96.2,75.3C96.3,75.3 96.4,75.2 96.5,75.2L96.7,75.1L96.1,75.1C96,75.1 95.9,75.1 95.7,75.2C95.4,75.2 95.1,75.3 94.7,75.3L90.5,75.3C90.5,75.3 90.6,75.3 90.7,75.4C90.8,75.4 90.9,75.5 91,75.5C91.1,75.5 91.2,75.6 91.4,75.6L91.9,75.6Z" style="fill:rgb(63,63,63);fill-rule:nonzero;"/>
                <path d="M94.4,71.3L92.8,71.3C92.8,71.3 92.9,71.4 93.2,71.5C93.3,71.5 93.5,71.6 93.6,71.7L94.8,71.7C95,71.7 95.2,71.6 95.2,71.6C95.2,71.6 95,71.6 94.8,71.5C94.7,71.4 94.6,71.4 94.4,71.3Z" style="fill:rgb(63,63,63);fill-rule:nonzero;"/>
                <path d="M120.3,66.8C120.4,66.6 120.4,66.3 120.4,66.1L120.4,65.4L120.4,65.6C120.4,65.7 120.3,65.9 120.3,66C120.2,66.2 120.2,66.4 120.1,66.6C120.1,66.7 120,66.8 119.9,66.9C119.8,67 119.8,67.1 119.7,67.2C119.6,67.3 119.6,67.4 119.5,67.5C119.4,67.6 119.3,67.7 119.3,67.7C119.2,67.8 119.1,67.8 119,67.9C118.9,68 118.8,68 118.8,68.1C118.6,68.2 118.5,68.3 118.4,68.3C118.3,68.4 118.2,68.4 118.2,68.4L118.4,68.4C118.5,68.4 118.7,68.3 118.9,68.3C119,68.3 119.1,68.2 119.2,68.2C119.3,68.1 119.4,68.1 119.5,68C119.6,67.9 120,67.5 120.1,67.4C120.2,67.3 120.2,67.2 120.3,67.1C120.2,67.1 120.2,66.9 120.3,66.8Z" style="fill:rgb(63,63,63);fill-rule:nonzero;"/>
                <path d="M121.7,70.2C121.7,70.3 121.6,70.4 121.6,70.4C121.6,70.5 121.5,70.6 121.5,70.6C121.5,70.7 121.5,70.7 121.4,70.8C121.3,71.1 121.3,71.3 121.3,71.3C121.3,71.3 121.4,71.2 121.6,70.9C121.6,70.8 121.7,70.8 121.7,70.7C121.7,70.6 121.8,70.6 121.8,70.5C121.8,70.4 121.9,70.3 121.9,70.3C121.9,70.2 122,70.1 122,70C122,69.9 122.1,69.8 122.1,69.7C122.1,69.6 122.1,69.5 122.2,69.4C122.2,69.2 122.3,69.1 122.3,68.9L122.3,68.4C122.3,68.4 122.2,68.6 122.1,68.8C122.1,68.9 122,69.1 121.9,69.2C121.9,69.3 121.8,69.4 121.8,69.4C121.8,69.5 121.7,69.6 121.7,69.7L121.7,70.2Z" style="fill:rgb(63,63,63);fill-rule:nonzero;"/>
                <path d="M120.6,67.4C120.6,67.5 120.5,67.5 120.5,67.6C120.5,67.7 120.4,67.8 120.4,67.8C120.4,67.9 120.4,67.9 120.3,68L120.3,68.3L120.4,68.2C120.4,68.1 120.5,68.1 120.5,68C120.5,67.9 120.6,67.9 120.6,67.8C120.6,67.7 120.7,67.6 120.7,67.6L120.7,67.1L120.7,67.2C120.7,67.2 120.7,67.3 120.6,67.3L120.6,67.4Z" style="fill:rgb(63,63,63);fill-rule:nonzero;"/>
                <path d="M95.8,74.7C95.7,74.7 95.6,74.7 95.4,74.8C95.3,74.8 95.1,74.8 95,74.9C94.9,74.9 94.7,74.9 94.6,75C94.5,75 94.3,75 94.2,75.1L93.8,75.1L95,75.1C95.1,75.1 95.3,75 95.4,75C95.5,75 95.7,74.9 95.8,74.9C95.9,74.9 96,74.8 96.1,74.8L96.2,74.8L96.1,74.8C96,74.7 95.9,74.7 95.8,74.7Z" style="fill:rgb(63,63,63);fill-rule:nonzero;"/>
                <path d="M97.8,44.7C97.9,44.6 98,44.5 98.2,44.3C98.3,44.2 98.5,44 98.7,43.9C98.9,43.8 99,43.6 99.2,43.5C99.4,43.4 99.5,43.3 99.6,43.2C99.7,43.1 99.8,43 99.9,43L100,42.9L99.9,42.9C99.8,42.9 99.7,43 99.5,43C99.4,43.1 99.2,43.2 99,43.3C98.8,43.4 98.7,43.5 98.5,43.7C98.3,43.8 98.2,44 98,44.1C97.9,44.3 97.8,44.5 97.8,44.7C97.6,44.8 97.5,44.9 97.5,44.9C97.5,45 97.4,45 97.4,45L97.5,44.9C97.6,44.9 97.7,44.8 97.8,44.7Z" style="fill:rgb(63,63,63);fill-rule:nonzero;"/>
                <path d="M107.1,65.2C107,65.3 107,65.4 106.9,65.4C106.8,65.5 106.8,65.5 106.7,65.6C106.6,65.7 106.5,65.7 106.4,65.8C106.3,65.9 106.2,66 106,66C105.9,66.1 105.7,66.1 105.6,66.2C105.5,66.2 105.4,66.3 105.4,66.3C105.3,66.3 105.2,66.4 105.2,66.4C105,66.4 104.9,66.5 104.7,66.5C104.3,66.6 103.9,66.6 103.5,66.6C103.1,66.6 102.7,66.5 102.3,66.4C102.2,66.4 102.1,66.3 102,66.3L101.8,66.3L101.7,66.2C101.6,66.2 101.5,66.1 101.4,66L101.1,65.8C100.7,65.5 100.4,65.2 100.2,64.9C99.9,64.6 99.7,64.2 99.6,63.8C99.5,63.4 99.3,63 99.3,62.7L99.3,61.6C99.3,61.4 99.3,61.3 99.4,61.1C99.4,61 99.5,60.8 99.5,60.7C99.5,60.6 99.6,60.5 99.6,60.3C99.6,60.2 99.7,60.1 99.7,60C99.7,60 99.7,59.9 99.8,59.9C99.8,59.9 99.8,59.8 99.9,59.8C99.9,59.7 100,59.7 100,59.6L100.1,59.5L100,59.6C100,59.6 99.9,59.7 99.9,59.8C99.9,59.8 99.9,59.9 99.8,59.9C99.8,59.9 99.8,60 99.7,60C99.7,60.1 99.6,60.2 99.5,60.3C99.5,60.4 99.4,60.5 99.3,60.7C99.2,60.8 99.2,61 99.2,61.1C99.2,61.2 99.2,61.3 99.1,61.3C99.1,61.4 99.1,61.5 99,61.5L99,62.7C99,63.1 99.1,63.5 99.3,63.9C99.3,64 99.4,64.1 99.4,64.2C99.4,64.3 99.5,64.4 99.6,64.5L99.8,64.7C99.9,64.8 99.9,64.9 100,65C100.3,65.4 100.6,65.7 101,66L101.3,66.2C101.4,66.3 101.5,66.3 101.6,66.4L101.8,66.5L102,66.5C102.1,66.5 102.2,66.6 102.3,66.6C102.4,66.6 102.5,66.7 102.6,66.7L103.6,66.7C104,66.7 104.5,66.7 104.8,66.6C105,66.6 105.2,66.5 105.3,66.4C105.4,66.4 105.5,66.3 105.6,66.3C105.7,66.3 105.8,66.2 105.8,66.2C105.9,66.2 105.9,66.1 106,66.1C106.1,66.1 106.1,66 106.2,66C106.3,65.9 106.4,65.8 106.6,65.7C106.7,65.6 107.2,65.1 107.2,65.1C107.1,65.3 107.1,65.2 107.1,65.2C107.2,65.2 107.2,65.1 107.2,65.1L107.3,65C107.3,65 107.2,65.1 107.1,65.2Z" style="fill:rgb(63,63,63);fill-rule:nonzero;"/>
                <path d="M98.4,61.8L98.4,63.2C98.4,63.3 98.4,63.4 98.5,63.5C98.5,63.6 98.5,63.7 98.6,63.8C98.7,64 98.7,64.1 98.8,64.3C98.9,64.4 98.9,64.6 99,64.7C99.1,64.8 99.1,64.9 99.2,65L99.4,65.2C99.5,65.3 99.5,65.3 99.5,65.4L99.6,65.5C99.6,65.5 99.6,65.4 99.5,65.3C99.5,65.2 99.4,65.2 99.4,65.1C99.4,65.1 99.4,65 99.3,65C99.3,65 99.3,64.9 99.2,64.9C99.2,64.8 99.1,64.7 99,64.6C99,64.5 98.9,64.3 98.8,64.2C98.7,64.1 98.7,63.9 98.7,63.7C98.7,63.5 98.6,63.4 98.6,63.2L98.6,62C98.6,61.6 98.7,61.1 98.9,60.7C99.1,60.3 99.3,59.8 99.6,59.4C99.7,59.3 99.8,59.2 99.8,59.1L100.3,58.6L100.9,58.2C101,58.2 101,58.1 101.1,58.1L101.5,57.9L101.7,57.9C101.8,57.9 101.9,57.8 102,57.8C102.5,57.6 102.9,57.5 103.4,57.5C103.9,57.5 104.3,57.5 104.7,57.6C104.9,57.6 105.1,57.7 105.3,57.7C105.4,57.7 105.5,57.8 105.6,57.8C105.7,57.8 105.8,57.9 105.9,57.9C106.1,58 106.2,58.1 106.4,58.1C106.5,58.2 106.7,58.3 106.8,58.4C106.9,58.5 107,58.6 107.1,58.7C107.2,58.8 107.3,58.9 107.4,58.9L107.9,59.4C107.9,59.4 107.9,59.3 107.8,59.3C107.8,59.3 107.7,59.2 107.7,59.1C107.7,59.1 107,58.4 106.9,58.3C106.8,58.2 106.6,58.1 106.5,58C106.4,57.9 106.3,57.9 106.3,57.9C106.2,57.9 106.1,57.8 106,57.8C105.9,57.8 105.8,57.7 105.7,57.7C105.6,57.7 105.5,57.6 105.4,57.6C105.2,57.5 105,57.5 104.8,57.4C104.4,57.3 103.9,57.3 103.4,57.3L103,57.3C102.9,57.3 102.8,57.3 102.6,57.4L102.4,57.4L102.2,57.5C102.1,57.5 102,57.6 101.8,57.6C101.3,57.8 100.8,58.1 100.4,58.4L99.6,59.2C99.5,59.3 99.4,59.4 99.4,59.5C99.3,59.6 99.3,59.7 99.2,59.8L99,59.6L99,59.8C98.9,59.9 98.9,60 98.8,60.1C98.8,60.2 98.7,60.3 98.7,60.4C98.5,60.9 98.4,61.3 98.4,61.8Z" style="fill:rgb(63,63,63);fill-rule:nonzero;"/>
                <path d="M115.7,53C116.1,53.1 116.5,53.2 116.9,53.4C117.3,53.6 117.7,53.8 118.1,54.2C118.4,54.5 118.7,55 118.8,55.4C118.9,55.8 118.9,56.3 118.9,56.6C118.9,57 118.7,57.3 118.6,57.4C118.6,57.5 118.5,57.6 118.5,57.6L118.5,57.7L118.6,57.6C118.6,57.6 118.7,57.5 118.7,57.4C118.8,57.2 118.9,56.9 119,56.6C119.1,56.2 119.1,55.8 119,55.3C118.9,54.8 118.6,54.4 118.3,54C117.9,53.6 117.5,53.4 117.1,53.2C116.7,53 116.2,52.9 115.9,52.9C115.5,52.8 115.2,52.8 115,52.8L114.7,52.8C114.7,52.8 114.8,52.8 115,52.9C115.1,52.8 115.4,52.9 115.7,53Z" style="fill:rgb(63,63,63);fill-rule:nonzero;"/>
                <path d="M93,54.4C92.7,54.4 92.3,54.4 91.8,54.5C91.4,54.6 90.9,54.6 90.5,54.8C90.3,54.9 90.1,54.9 89.9,55C89.7,55.1 89.5,55.2 89.3,55.3C88.9,55.5 88.6,55.8 88.3,56C88,56.2 87.9,56.5 87.7,56.6C87.6,56.7 87.6,56.7 87.6,56.8L87.6,56.9C87.6,56.9 87.8,56.7 87.9,56.6C88,56.5 88.2,56.3 88.5,56.1C88.8,55.9 89.1,55.7 89.5,55.5C89.7,55.4 89.9,55.3 90.1,55.2C90.3,55.1 90.5,55 90.7,55C91.1,54.9 91.6,54.8 92,54.7C92.4,54.6 92.8,54.6 93.1,54.6C93.4,54.6 93.7,54.6 93.9,54.5L94.2,54.5L93.9,54.5C93.7,54.4 93.4,54.4 93,54.4Z" style="fill:rgb(63,63,63);fill-rule:nonzero;"/>
                <path d="M102.7,77.6C102.5,77.4 102.3,77.3 102.2,77.2C102.1,77 102,77 102,77C102,77 102.1,77.1 102.1,77.2C102.3,77.3 102.4,77.5 102.7,77.6C102.8,77.9 103,78.1 103.3,78.3C103.6,78.5 103.9,78.6 104.3,78.7C104.7,78.8 105,78.8 105.4,78.8C105.7,78.8 106.1,78.7 106.3,78.6C106.6,78.5 106.8,78.4 106.9,78.3C107,78.3 107,78.2 107,78.2L107.1,78.2L107,78.2C107,78.2 106.9,78.2 106.8,78.3C106.7,78.4 106.5,78.5 106.2,78.5C105.9,78.6 105.6,78.6 105.3,78.6C105,78.6 104.6,78.6 104.3,78.5C104,78.4 103.6,78.3 103.4,78.1C103.1,78 102.9,77.8 102.7,77.6Z" style="fill:rgb(63,63,63);fill-rule:nonzero;"/>
                <path d="M83.9,56.8C83.9,56.7 84,56.6 84,56.5C84.1,56.3 84.2,56.1 84.3,55.8C84.4,55.6 84.6,55.3 84.7,55.1C84.9,54.9 85,54.6 85.2,54.4C85.4,54.2 85.5,54 85.7,53.9C85.8,53.8 86,53.6 86.1,53.5C86.2,53.4 86.3,53.4 86.3,53.4C86.3,53.4 86.2,53.4 86.1,53.5C86,53.5 86,53.6 85.9,53.6C85.8,53.6 85.7,53.7 85.7,53.8C85.5,53.9 85.3,54.1 85.1,54.3C84.9,54.5 84.7,54.7 84.6,55C84.4,55.3 84.3,55.5 84.2,55.8C84.1,56.1 84,56.3 84,56.5C83.8,56.6 83.8,56.7 83.9,56.8C83.8,56.9 83.8,56.9 83.8,57L83.8,57.2C83.8,57.2 83.8,57.1 83.9,57C83.8,57 83.8,56.9 83.9,56.8Z" style="fill:rgb(63,63,63);fill-rule:nonzero;"/>
                <path d="M119.6,50.4C119.7,50.4 119.8,50.5 119.8,50.5C120,50.6 120.2,50.7 120.4,50.8C120.6,50.9 120.8,51.1 121,51.2C121.2,51.4 121.4,51.5 121.5,51.7C121.7,51.9 121.8,52.1 121.9,52.2C122,52.3 122,52.3 122,52.4C122,52.5 122.1,52.5 122.1,52.6C122.2,52.7 122.2,52.8 122.2,52.8C122.2,52.8 122.2,52.7 122.1,52.6C122.1,52.5 122.1,52.5 122,52.4C122,52.3 121.9,52.2 121.9,52.2C121.8,52 121.7,51.8 121.5,51.6C121.3,51.4 121.2,51.2 121,51C120.8,50.8 120.6,50.7 120.4,50.6C120.2,50.5 120,50.4 119.8,50.3C119.8,50.4 119.7,50.4 119.6,50.4C119.5,50.3 119.5,50.3 119.4,50.3L119.2,50.3C119.2,50.3 119.3,50.3 119.4,50.4L119.6,50.4Z" style="fill:rgb(63,63,63);fill-rule:nonzero;"/>
                <path d="M105.8,82.8L104.3,82.8C104.1,82.8 103.9,82.8 103.7,82.7C103.5,82.7 103.4,82.7 103.2,82.6C103.1,82.6 102.9,82.6 102.9,82.5L102.8,82.5L102.9,82.6C103,82.6 103.1,82.7 103.2,82.7C103.3,82.7 103.5,82.8 103.7,82.8C103.9,82.8 104.1,82.9 104.3,82.9L105.4,82.9C105.5,82.9 105.7,82.9 105.7,82.8L105.8,82.8Z" style="fill:rgb(63,63,63);fill-rule:nonzero;"/>
            </g>
        </g>
        <g>
            <g>
                <path d="M83.5,98.8L82.2,98.3L84.1,93.6L87.8,95.1L87.4,96.1L85,95.2L83.5,98.8ZM84.4,96.1L86.6,97L86.2,98L84,97.1L84.4,96.1Z" style="fill:rgb(63,63,63);fill-rule:nonzero;"/>
                <path d="M91.5,100.5C90.7,100.5 90.2,100.3 89.7,99.9C89.3,99.5 89.1,98.9 89.1,98.2L89.1,95.4L90.5,95.4L90.5,98.2C90.5,98.6 90.6,98.9 90.8,99.1C91,99.3 91.2,99.4 91.5,99.4C91.8,99.4 92,99.3 92.2,99.1C92.4,98.9 92.4,98.6 92.4,98.2L92.4,95.4L93.8,95.4L93.8,98.2C93.8,99 93.6,99.5 93.2,100C92.8,100.3 92.2,100.5 91.5,100.5Z" style="fill:rgb(63,63,63);fill-rule:nonzero;"/>
                <path d="M98.4,99L96.9,95.4L95.4,96L95,95L99.2,93.2L99.6,94.3L98.2,94.9L99.7,98.5L98.4,99Z" style="fill:rgb(63,63,63);fill-rule:nonzero;"/>
                <path d="M105.3,95.1C104.7,95.5 104.1,95.7 103.5,95.6C102.9,95.5 102.4,95.1 102,94.5L100.4,92.2L101.6,91.4L103.2,93.7C103.4,94.1 103.7,94.3 103.9,94.3C104.1,94.3 104.4,94.3 104.6,94.1C104.8,93.9 105,93.7 105,93.5C105,93.2 104.9,92.9 104.7,92.6L103.1,90.3L104.3,89.5L105.9,91.8C106.3,92.4 106.5,93 106.4,93.6C106.3,94.2 106,94.7 105.3,95.1Z" style="fill:rgb(63,63,63);fill-rule:nonzero;"/>
                <path d="M109.3,92.4L106.8,88L108.8,86.9C109.2,86.7 109.6,86.5 110,86.5C110.4,86.5 110.7,86.5 111,86.7C111.3,86.9 111.5,87.1 111.7,87.4C111.9,87.7 112,88.1 112,88.4C112,88.7 111.9,89 111.6,89.3C111.4,89.6 111.1,89.9 110.7,90.1L109.4,90.8L109.7,90L110.7,91.7L109.3,92.4ZM109.6,90.2L108.7,89.9L110,89.2C110.3,89.1 110.4,88.9 110.5,88.7C110.6,88.5 110.5,88.3 110.4,88.1C110.3,87.9 110.1,87.8 109.9,87.7C109.7,87.7 109.5,87.7 109.2,87.9L107.9,88.6L108.1,87.7L109.6,90.2ZM112,90.9L110,89.9L111.3,89.1L113.3,90.1L112,90.9Z" style="fill:rgb(63,63,63);fill-rule:nonzero;"/>
                <path d="M115.2,89.3L113,84.7L114.3,84.1L116.5,88.7L115.2,89.3Z" style="fill:rgb(63,63,63);fill-rule:nonzero;"/>
                <path d="M118.1,87.8L118.3,82.2L119.6,81.7L123.6,85.6L122.2,86.1L119,82.7L119.5,82.5L119.5,87.2L118.1,87.8ZM118.9,86.5L118.9,85.4L121.2,84.5L121.9,85.3L118.9,86.5Z" style="fill:rgb(63,63,63);fill-rule:nonzero;"/>
            </g>
        </g>
    </g>
    <g transform="matrix(0.564231,0,0,0.581708,83.2392,-89.5201)">
        <g transform="matrix(41.2578,0,0,41.2578,636.67,260.441)">
        </g>
        <text x="144.341px" y="260.441px" style="font-family:'Montserrat-SemiBold', 'Montserrat';font-weight:600;font-size:41.258px;fill:rgb(64,122,175);">
            REPUBLIC OF FUTURIA
        </text>
    </g>
    <g transform="matrix(1,0,0,1,-47.6302,1.89917)">
        <g transform="matrix(1,0,0,1,-14.9552,-43.6999)">
            <g transform="matrix(18,0,0,18,501.226,253.46)">
            </g>
            <text x="297.61px" y="253.46px" style="font-family:'Montserrat-Regular', 'Montserrat';font-size:18px;fill:rgb(27,27,27);">
                    {{ registrationNumber }}
            </text>
        </g>
        <g transform="matrix(1.05359,0,0,1,-7.45673,-52.6992)">
            <g transform="matrix(10,0,0,10,217.674,261.282)">
            </g>
            <g transform="matrix(10,0,0,10,221.069,261.282)">
            </g>
            <g transform="matrix(10,0,0,10,266.964,261.282)">
            </g>
            <text x="193.764px" y="261.282px" style="font-family:'Montserrat-Regular', 'Montserrat';font-size:10px;fill:rgb(153,153,153);">
                Certificate No : 
            </text>
        </g>
    </g>
    <g transform="matrix(1,0,0,1,-122.085,62.0483)">
        <g transform="matrix(1,0,0,1,-4.41621,-44.4745)">
            <g transform="matrix(12,0,0,12,412.45,253.46)">
            </g>
            <text x="300.61px" y="256.46px" style="font-family:'Montserrat-Regular', 'Montserrat';font-size:12px;fill:rgb(27,27,27);">
                 {{childFirstName}} {{ birthChildMiddleNamesEng }} {{childFamilyName}}
            </text>
        </g>
        <g transform="matrix(1.05359,0,0,1,-7.71087,-50.0602)">
            <g transform="matrix(10,0,0,10,281.554,261.282)">
            </g>
            <text x="193.764px" y="261.282px" style="font-family:'Montserrat-Regular', 'Montserrat';font-size:10px;fill:rgb(153,153,153);">Child&apos;s full name :</text>
        </g>
    </g>
    <g transform="matrix(1,0,0,1,-122.511,137.237)">
        <g transform="matrix(1,0,0,1,-21.6122,-42.7118)">
            <g transform="matrix(12,0,0,12,396.658,253.46)">
            </g>
            <text x="300.61px" y="253.46px" style="font-family:'Montserrat-Regular', 'Montserrat';font-size:12px;fill:rgb(27,27,27);">
                 {{#ifCond placeOfBirthFacility '===' undefined }}
                    {{location districtPlaceofbirthId 'name'}}, {{internationalDistrictPlaceofbirth}}, {{location statePlaceofbirthId 'name'}}{{internationalStatePlaceofbirth}}, {{countryPlaceofbirth}}
                {{else}}
                    {{placeOfBirthFacility}}&#10;, {{placeOfBirthState}}, {{placeOfBirthCountry}}
                {{/ifCond}}
            </text>
        </g>
        <g transform="matrix(1.05359,0,0,1,-7.71087,-50.0602)">
            <g transform="matrix(10,0,0,10,268.084,261.282)">
            </g>
            <text x="193.764px" y="261.282px" style="font-family:'Montserrat-Regular', 'Montserrat';font-size:10px;fill:rgb(153,153,153);">Place Of Birth :</text>
        </g>
    </g>
    <g transform="matrix(1,0,0,1,-122.223,102.338)">
        <g transform="matrix(1,0,0,1,-20.986,-45.4708)">
            <g transform="matrix(12,0,0,12,391.426,253.46)">
            </g>
            <text x="297.61px" y="253.46px" style="font-family:'Montserrat-Regular', 'Montserrat';font-size:12px;fill:rgb(27,27,27);">{{eventDate}}</text>
        </g>
        <g transform="matrix(1.05359,0,0,1,-7.45673,-52.6992)">
            <g transform="matrix(10,0,0,10,264.804,261.282)">
            </g>
            <text x="193.764px" y="261.282px" style="font-family:'Montserrat-Regular', 'Montserrat';font-size:10px;fill:rgb(153,153,153);">Date of birth :</text>
        </g>
    </g>
    <g transform="matrix(1,0,0,1,139.394,101.333)">
        <g transform="matrix(1,0,0,1,-48.5427,-45.7127)">
            <g transform="matrix(12,0,0,12,363.706,253.46)">
            </g>
            <text x="297.61px" y="253.46px" style="font-family:'Montserrat-Regular', 'Montserrat';font-size:12px;fill:rgb(27,27,27);">{{ childGender }}</text>
        </g>
        <g transform="matrix(1.05359,0,0,1.05359,-7.45673,-66.323)">
            <g transform="matrix(10,0,0,10,235.864,261.282)">
            </g>
            <text x="193.764px" y="261.282px" style="font-family:'Montserrat-Regular', 'Montserrat';font-size:10px;fill:rgb(153,153,153);">Gender :</text>
        </g>
    </g>
    <g transform="matrix(1,0,0,1,-123.673,171.665)">
        <g transform="matrix(1,0,0,1,10.7296,-42.753)">
            <g transform="matrix(12,0,0,12,401.866,253.46)">
            </g>
            <text x="297.61px" y="253.46px" style="font-family:'Montserrat-Regular', 'Montserrat';font-size:12px;fill:rgb(27,27,27);">{{ motherFirstName }} {{ birthMotherMiddleNamesEng }} {{ motherFamilyName }}</text>
        </g>
        <g transform="matrix(1.05359,0,0,1,-7.71087,-50.0602)">
            <g transform="matrix(10,0,0,10,292.134,261.282)">
            </g>
            <text x="193.764px" y="261.282px" style="font-family:'Montserrat-Regular', 'Montserrat';font-size:10px;fill:rgb(153,153,153);">Mother&apos;s full name :</text>
        </g>
    </g>
    <g transform="matrix(1,0,0,1,-123.365,206.171)">
        <g transform="matrix(1,0,0,1,10.0876,-42.887)">
            <g transform="matrix(12,0,0,12,392.638,253.46)">
            </g>
            <text x="297.61px" y="253.46px" style="font-family:'Montserrat-Regular', 'Montserrat';font-size:12px;fill:rgb(27,27,27);">{{ fatherFirstName }} {{ birthFatherMiddleNamesEng }} {{ fatherFamilyName }}</text>
        </g>
        <g transform="matrix(1.05359,0,0,1,-7.71087,-50.0602)">
            <g transform="matrix(10,0,0,10,288.334,261.282)">
            </g>
            <text x="193.764px" y="261.282px" style="font-family:'Montserrat-Regular', 'Montserrat';font-size:10px;fill:rgb(153,153,153);">Father&apos;s full name :</text>
        </g>
    </g>
    <g transform="matrix(1,0,0,1,-124.374,238.392)">
        <g transform="matrix(1,0,0,1,10.3796,-42.169)">
            <g transform="matrix(12,0,0,12,421.894,253.46)">
            </g>
            <text x="297.61px" y="253.46px" style="font-family:'Montserrat-Regular', 'Montserrat';font-size:12px;fill:rgb(27,27,27);">{{location registrar.officeId 'name'}}, {{location registrar.districtId 'name'}}, {{location registrar.stateId 'name'}}, Futuria</text>
        </g>
        <g transform="matrix(1.05359,0,0,1,-7.71087,-50.0602)">
            <g transform="matrix(10,0,0,10,298.374,261.282)">
            </g>
            <text x="193.764px" y="261.282px" style="font-family:'Montserrat-Regular', 'Montserrat';font-size:10px;fill:rgb(153,153,153);">Place of registration :</text>
        </g>
    </g>
    <g transform="matrix(1,0,0,1,-125.302,275.697)">
        <g transform="matrix(1,0,0,1,11.0115,-42.875)">
            <g transform="matrix(12,0,0,12,417.958,253.46)">
            </g>
            <text x="297.61px" y="253.46px" style="font-family:'Montserrat-Regular', 'Montserrat';font-size:12px;fill:rgb(27,27,27);">{{registrationDate}}</text>
        </g>
        <g transform="matrix(1.05359,0,0,1,-7.71087,-50.0602)">
            <g transform="matrix(10,0,0,10,295.094,261.282)">
            </g>
            <text x="193.764px" y="261.282px" style="font-family:'Montserrat-Regular', 'Montserrat';font-size:10px;fill:rgb(153,153,153);">Date of registration :</text>
        </g>
    </g>
    <g transform="matrix(1,0,0,1,-123.524,311.564)">
        <g transform="matrix(1,0,0,1,11.4515,-42.753)">
            <g transform="matrix(12,0,0,12,420.478,253.46)">
            </g>
            <text x="297.61px" y="253.46px" style="font-family:'Montserrat-Medium', 'Montserrat';font-weight:500;font-size:12px;fill:rgb(27,27,27);">{{registrar.name}}</text>
        </g>
        <g transform="matrix(1.05359,0,0,1,-7.71087,-50.0602)">
            <g transform="matrix(10,0,0,10,267.474,261.282)">
            </g>
            <text x="193.764px" y="261.282px" style="font-family:'Montserrat-Regular', 'Montserrat';font-size:10px;fill:rgb(153,153,153);">Registered by :</text>
        </g>
    </g>
    <g transform="matrix(1,0,0,1,-1.58786,-24.9818)">
        <rect x="0.5" y="598.7" width="591.3" height="2" style="fill:rgb(205,204,204);"/>
    </g>
    <rect x="0.5" y="737.1" width="591.3" height="2" style="fill:rgb(205,204,204);"/>
    <g transform="matrix(1,0,0,1,13.7048,1.84183)">
        <g transform="matrix(1,0,0,1,8.44111,22.636)">
            <g transform="matrix(1.05883,0,0,1,-12.4591,0)">
                <g transform="matrix(14,0,0,14,332.14,686.839)">
                </g>
                <text x="211.788px" y="686.839px" style="font-family:'Montserrat-Regular', 'Montserrat';font-size:14px;fill:rgb(63,63,63);">{{registrar.name}}</text>
            </g>
        </g>
        <g transform="matrix(1,0,0,1,105.753,16.7065)">
            <g transform="matrix(1.05883,0,0,1,-9.05052,0)">
                <g transform="matrix(10,0,0,10,199.073,707.561)">
                </g>
                <text x="153.847px" y="707.561px" style="font-family:'Montserrat-Regular', 'Montserrat';font-size:10px;fill:rgb(153,153,153);">Registrar</text>
            </g>
        </g>
        <g transform="matrix(1.00497,0,0,1,-22.6837,-36.2268)">
            <g transform="matrix(1.05359,0,0,1,-4.47043,0)">
                <g transform="matrix(10,0,0,10,190.846,634.361)">
                </g>
                <g transform="matrix(10,0,0,10,194.242,634.361)">
                </g>
                <g transform="matrix(10,0,0,10,484.633,634.361)">
                </g>
                <text x="83.417px" y="634.361px" style="font-family:'Montserrat-Italic', 'Montserrat';font-style:italic;font-size:10px;fill:rgb(63,63,63);">I certify that this certificate is a true copy of the civil registry and is issued by the</text>
            </g>
        </g>
        <g transform="matrix(1.00497,0,0,1,-23.8866,-22.0763)">
            <g transform="matrix(1.05359,0,0,1,-4.47043,0)">
                <g transform="matrix(10,0,0,10,374.869,634.361)">
                </g>
                <text x="83.417px" y="634.361px" style="font-family:'Montserrat-Italic', 'Montserrat';font-style:italic;font-size:10px;fill:rgb(63,63,63);">mandated authority in pursuance of civil registration law</text>
            </g>
        </g>
    </g>
    <defs>
    <image id="_Image2" width="240px" height="240px" xlink:href="{{qrCode}}" />
    {{#ifCond printInAdvance '!==' true}}<image id="_Image1" width="590px" height="590px" xlink:href="{{registrar.signature}}"/>{{/ifCond}}
    </defs>

</svg>
